<?xml version="1.0" standalone="no"?>
<!DOCTYPE svg PUBLIC "-//W3C//DTD SVG 1.1//EN" "http://www.w3.org/Graphics/SVG/1.1/DTD/svg11.dtd" >
<svg xmlns="http://www.w3.org/2000/svg">
<metadata>
Created by FontForge 20120731 at Tue Jun 20 09:34:49 2017
 By admin
</metadata>
<defs>
<font id="iconfont" horiz-adv-x="1024" >
  <font-face 
    font-family="iconfont"
    font-weight="500"
    font-stretch="normal"
    units-per-em="1024"
    panose-1="2 0 6 3 0 0 0 0 0 0"
    ascent="896"
    descent="-128"
    x-height="792"
    bbox="-0.327869 -217 1241 896"
    underline-thickness="0"
    underline-position="0"
    unicode-range="U+0078-E8F8"
  />
<missing-glyph 
 />
    <glyph glyph-name=".notdef" 
 />
    <glyph glyph-name=".notdef" 
 />
    <glyph glyph-name=".null" horiz-adv-x="0" 
 />
    <glyph glyph-name="nonmarkingreturn" horiz-adv-x="341" 
 />
    <glyph glyph-name="x" unicode="x" horiz-adv-x="1001" 
d="M281 543q-27 -1 -53 -1h-83q-18 0 -36.5 -6t-32.5 -18.5t-23 -32t-9 -45.5v-76h912v41q0 16 -0.5 30t-0.5 18q0 13 -5 29t-17 29.5t-31.5 22.5t-49.5 9h-133v-97h-438v97zM955 310v-52q0 -23 0.5 -52t0.5 -58t-10.5 -47.5t-26 -30t-33 -16t-31.5 -4.5q-14 -1 -29.5 -0.5
t-29.5 0.5h-32l-45 128h-439l-44 -128h-29h-34q-20 0 -45 1q-25 0 -41 9.5t-25.5 23t-13.5 29.5t-4 30v167h911zM163 247q-12 0 -21 -8.5t-9 -21.5t9 -21.5t21 -8.5q13 0 22 8.5t9 21.5t-9 21.5t-22 8.5zM316 123q-8 -26 -14 -48q-5 -19 -10.5 -37t-7.5 -25t-3 -15t1 -14.5
t9.5 -10.5t21.5 -4h37h67h81h80h64h36q23 0 34 12t2 38q-5 13 -9.5 30.5t-9.5 34.5q-5 19 -11 39h-368zM336 498v228q0 11 2.5 23t10 21.5t20.5 15.5t34 6h188q31 0 51.5 -14.5t20.5 -52.5v-227h-327z" />
    <glyph glyph-name="xiangmu" unicode="&#xe62e;" 
d="M802 675q-8 3 -23 3h-589v0h589q17 0 23 -3zM830 667q-1 0 -2 1t-2 1zM879 626q-1 1 -3 4.5t-3 4.5q2 -4 6 -9zM922 -20h-11h-19v599q0 15 -2 24q2 -6 2 -24v-599h19h11zM941 -14q-1 -1 -4.5 -2t-4.5 -2q1 1 4.5 2t4.5 2zM990 784q-32 26 -77 26h-668q-48 0 -76 -26
q-35 -30 -35 -70v-34h-21q-48 0 -77 -26q-36 -33 -36 -75v-693q0 -43 34 -70q32 -26 77 -26h666q48 0 76 26q37 32 37 70v34h19q48 0 77 26q34 31 34 70v696q6 40 -30 72zM834 -112q0 -16 -16.5 -27t-38.5 -11h-666q-22 0 -38.5 11t-16.5 27v691q0 16 16.5 27.5t38.5 11.5
h19h58v0h589q22 0 38.5 -11.5t16.5 -27.5v-691v0zM966 21q0 -13 -10 -24l-2 -2q-5 -4 -7 -4t-2 -2t-1 -2t-1 -1q-2 0 -2 -2h-2q-1 -1 -4.5 -2t-4.5 -2h-2h-2q-4 0 -7 -2h-10h-19v601q0 15 -3 24q0 2 -2 4q0 2 -2 4q0 3 -2 5q0 1 -1 2t-1 2q-1 1 -2 3t-2 3t-3.5 4.5t-3.5 4.5
q-1 2 -4 5t-4 6q-5 4 -9 6l-4 4l-2 2v0q-1 0 -2 1.5t-2 1.5q-3 1 -8 4t-7 4q-1 0 -2.5 1t-2.5 1t-3 1t-3 1h-2q-2 0 -5.5 1t-5.5 1h-2h-4q-9 3 -24 3h-582v34q0 8 2 12.5t9 10.5q17 17 44 17h666q22 0 38.5 -11t16.5 -27v-693v0zM149 558h429v-57h-429v57zM672 528
q0 13 8.5 22t21.5 10q13 0 21.5 -8.5t10.5 -21.5v-2q0 -12 -8.5 -21t-21.5 -11q-13 0 -21.5 8.5t-10.5 21.5v2zM58 449h776v-57h-776v57v0z" />
    <glyph glyph-name="shezhi" unicode="&#xe6a6;" 
d="M644 -105v0q-25 0 -41 18q-16 17 -42.5 35t-48.5 18q-23 0 -49.5 -18t-41.5 -34q-16 -18 -41 -18q-11 0 -21 5h-1l-107 60l-1 1q-14 10 -19 27.5t2 33.5q10 23 10 43q0 47 -33 80t-80 33h-4v0q-14 0 -24 11t-13 30q-10 48 -10 85t10 85q3 19 13.5 30t23.5 10h4
q47 0 80 33.5t33 79.5q0 21 -10 44q-7 16 -2 33.5t19 27.5l2 1l112 62h1q10 4 21 4q25 0 41 -16q15 -17 41 -34t48 -17t47.5 17t41.5 33t40 16q12 0 21 -4l2 -1l108 -60l1 -1q15 -10 20 -27.5t-2 -33.5q-10 -23 -10 -44q0 -46 33 -79.5t80 -33.5h3q14 1 24.5 -10t13.5 -30
q9 -48 9 -85t-9 -85q-3 -19 -13.5 -30t-24.5 -11h-3q-47 0 -80 -33t-33 -80q0 -20 10 -43q7 -16 2 -33.5t-20 -27.5l-1 -1l-110 -61l-1 -1q-10 -4 -21 -4zM641 -53q1 -1 3 -1v0l103 57q-13 33 -13 63q0 66 45 113.5t110 50.5q8 45 8 75t-8 75q-65 3 -110 50.5t-45 112.5
q0 31 13 64l-101 56h-1q-2 0 -3 -1q-16 -16 -38 -32q-47 -33 -88 -33t-89 34q-22 16 -37 32q-2 1 -4 1h-1l-105 -57q14 -33 14 -64q0 -65 -45 -112.5t-110 -50.5q-8 -45 -8 -75t8 -75q65 -3 110 -50.5t45 -113.5q0 -30 -14 -63l100 -55v0h3q16 18 38 34q49 35 91 35t90 -36
q23 -16 39 -34zM512 155q-62 0 -106 44t-44 106.5t44 106.5t106 44t106 -44t44 -106.5t-44 -106.5t-106 -44zM512 405q-41 0 -70 -29t-29 -70.5t29 -70.5t70 -29t70 29t29 70.5t-29 70.5t-70 29z" />
    <glyph glyph-name="dingdan1" unicode="&#xe622;" 
d="M844 752h-61q-13 0 -24 -7.5t-11 -19.5t11.5 -22.5t23.5 -10.5h61q26 0 43 -17t17 -43v-693q0 -27 -17 -43.5t-43 -16.5h-648q-29 0 -52.5 17t-23.5 43v693q0 26 17 43t43 17h76q23 0 23 33q0 27 -23 27h-76q-60 0 -90 -33.5t-30 -88.5v-685q0 -57 33.5 -91.5t93.5 -34.5
h650q62 0 94.5 32t32.5 94v685q0 54 -32 88t-88 34zM256 480.5q0 -12.5 9 -21.5t22 -9h452q12 0 21 9t9 21.5t-9 21.5t-21 9h-452q-13 0 -22 -9t-9 -21.5zM737 345h-450q-13 0 -22 -9t-9 -21.5t9 -22t22 -9.5h452q12 0 21 9.5t9 21.5q-1 13 -10 22t-22 9zM737 164h-450
q-13 0 -22 -9t-9 -21.5t9 -21.5t22 -9h452q12 0 21 9t9 22q-1 13 -10 21.5t-22 8.5zM408 676h210q18 0 31.5 16t13.5 37t-13.5 36.5t-32.5 15.5h-209q-19 0 -32.5 -15.5t-13.5 -36.5t13.5 -37t32.5 -16z" />
    <glyph glyph-name="wuyouanzhuang" unicode="&#xe630;" 
d="M962 300q0 90 -36 172.5t-96 142t-143.5 95t-174.5 35.5t-174.5 -35.5t-143.5 -95t-96 -142t-36 -173t36 -172.5t96 -141.5t143.5 -95t174.5 -35.5q149 0 271 91q5 6 5 13q0 8 -6 14t-14 6q-9 0 -15 -6v0q-108 -79 -241 -79q-110 0 -204 54t-148.5 146.5t-54.5 202
t54.5 202.5t148.5 147t204.5 54t204.5 -54t148.5 -147t54.5 -202q0 -102 -47 -188v-1q-1 -3 -1 -5q0 -8 6 -14t14 -6q14 0 19 13v0q51 97 51 204zM815 321q-29 19 -70 -6q-107 -64 -132 -77q-11 -5 -23 -2.5t-17 8.5q-50 57 -73 108q-10 17 -6.5 31t6.5 18.5t7 7.5
q1 1 30.5 18.5t66.5 39t51 29.5q37 19 42 39q4 17 -7 33q-8 11 -37.5 22.5t-71 18.5t-96 -2.5t-102.5 -37.5q-157 -91 -150 -291l1 -10q0 -11 -4.5 -23t-9.5 -19l-4 -6l-22 -23q-6 -6 -6 -15.5t6.5 -16t16 -6t15.5 6.5l24 24q29 35 29 78l-1 11q1 16 0 37t6 50t18.5 56.5
t38.5 57t65 51.5t80 30.5t75 4.5t54.5 -10t33.5 -12q-5 -4 -15 -9q-35 -18 -151 -88q-12 -8 -21 -22t-13 -38.5t10 -53.5q26 -56 82 -121q11 -14 37.5 -20t56.5 7l133 77q14 9 22 9q0 -1 0.5 -2.5t1 -8t-1.5 -15.5q-2 -16 -7 -33t-20 -44t-35.5 -49t-58 -42t-84.5 -28
q-53 -9 -129 1q-27 5 -53.5 3.5t-43.5 -16.5q-25 -20 -30.5 -27.5t-3.5 -17.5q5 -17 22 -17h6q7 2 12 8q4 5 23 20q11 9 62 3q83 -11 143 -1q56 10 101 34t73 57t45 68.5t23 73.5q7 51 -20 69z" />
    <glyph glyph-name="shouye" unicode="&#xe61e;" horiz-adv-x="1025" 
d="M996 132q-12 0 -21 10l-428 481q-14 16 -35 16v0q-20 0 -35 -16l-427 -481q-8 -9 -20 -10t-20.5 7t-9.5 19.5t7 20.5l427 481q32 36 78 36v0q46 0 78 -36l428 -481q8 -8 7 -20t-10 -20q-8 -7 -19 -7zM853 186v-284q0 -24 -16.5 -40.5t-40.5 -16.5h-113v227q0 48 -33.5 81
t-80.5 33h-114q-47 0 -80.5 -33t-33.5 -81v-227h-113q-24 0 -40.5 16.5t-16.5 40.5v284h-57v-284q0 -47 33 -80.5t81 -33.5h113h57v57v227q0 24 17 40.5t40 16.5h114q23 0 40 -16.5t17 -40.5v-227v-57h57h113q48 0 81 33.5t33 80.5v284h-57z" />
    <glyph glyph-name="tuihuanhuo" unicode="&#xe605;" horiz-adv-x="1025" 
d="M454 549q7 -8 6.5 -19t-8.5 -19l-150 -151q-8 -8 -19 -8.5t-19 7.5v0q-7 7 -6.5 18t8.5 19l150 151q8 8 19 8.5t19 -6.5v0zM958 551v0q-5 9 -15 12t-19.5 -2.5t-12.5 -15.5t3 -19v0v0q45 -82 55 -174t-13.5 -176t-80 -157.5t-138.5 -119.5t-174 -56t-176 13.5t-158 80
t-119.5 138.5t-55.5 174.5t13.5 176.5t80 157.5t138.5 119.5q127 69 263 57t245 -97l1 1v0q8 -6 18.5 -5t17 9.5t5 19t-9.5 16.5q0 1 -0.5 1h-0.5q-121 93 -272 105.5t-292 -64.5q-91 -51 -153.5 -132.5t-88.5 -175t-15 -196t62 -193t132.5 -153.5t175 -89t196 -15t193.5 62
t153.5 132.5t89 175t15 196t-62.5 193.5zM768 377q0 -11 -7.5 -18.5t-18.5 -7.5h-460q-11 0 -18.5 7.5t-7.5 18.5v0q0 10 7.5 17.5t18.5 7.5h460q11 0 18.5 -7.5t7.5 -17.5v0zM570 51q-7 7 -6.5 18.5t8.5 19.5l151 151q8 8 19 8.5t19 -7.5v0q7 -7 6.5 -18t-8.5 -20
l-151 -150q-8 -9 -19 -9.5t-19 7.5v0zM256 223q0 11 7.5 18.5t18.5 7.5h460q11 0 18.5 -7.5t7.5 -18.5v0q0 -10 -7.5 -17.5t-18.5 -7.5h-460q-11 0 -18.5 7.5t-7.5 17.5v0z" />
    <glyph glyph-name="develop-guide" unicode="&#xe6dc;" horiz-adv-x="1029" 
d="M401 -107q5 -2 10 -2q19 0 26 18l182 462q5 11 0.5 21.5t-15 14.5t-21 -0.5t-14.5 -15.5l-183 -462q-4 -11 0.5 -21t14.5 -15zM115 655.5q0 34.5 24 59t59 24.5h725q11 0 19 8t8 19t-8 19t-19 8h-725q-57 0 -97.5 -40.5t-40.5 -96.5v0v-736q0 -57 40.5 -97t97.5 -40h752
v789h-752q-35 0 -59 24.5t-24 59zM896 -163h-698q-35 0 -59 24.5t-24 58.5v626q36 -28 83 -28h698v-681zM923 685h-719q-12 0 -20 -8t-8 -19.5t8 -19.5t20 -8h719q11 0 19 8t8 19.5t-8 19.5t-19 8zM222 161l80 -79q8 -8 19 -8t19 8t8 19t-8 19l-60 60l60 60q8 8 8 19t-8 19
t-19 8t-19 -8l-80 -79q-6 -7 -7 -16q-2 -13 7 -22zM687 82q8 -8 19.5 -8t19.5 8l79 79v0v0q8 7 8 18v0.5v0.5v0.5v0.5q0 11 -8 18v0v0l-79 79q-8 8 -19.5 8t-19.5 -8t-8 -19t8 -19l60 -60l-60 -60q-8 -8 -8 -19t8 -19z" />
    <glyph glyph-name="gouwuche" unicode="&#xe61b;" 
d="M353 -18q-27 0 -45.5 -18.5t-18.5 -45t18.5 -45t45 -18.5t45 18.5t18.5 45t-18.5 45t-44.5 18.5v0v0zM799 -18q-26 0 -45 -18.5t-19 -45t19 -45t45 -18.5t45 18.5t19 45t-19 45t-45 18.5v0v0zM862 14h-518q-34 0 -60.5 24t-31.5 59l-54 381l-31 177q-1 12 -10 20.5
t-19 8.5h-41q-13 0 -22.5 9t-9.5 22.5t9.5 22.5t22.5 9h41q34 0 61 -23.5t32 -58.5l30 -178l55 -382q1 -11 9.5 -19t18.5 -8h518q14 0 23 -9.5t9 -22.5t-9 -22.5t-23 -9.5v0zM384 142q-12 0 -21.5 8.5t-10.5 20.5q-1 13 8 23t22 11l432 32q12 0 21 8t10 19l51 287
q2 18 -8 30q-7 7 -16 7h-552q-13 0 -22.5 9.5t-9.5 22.5t9.5 22.5t22.5 9.5h552q38 0 63 -29q30 -33 24 -81l-50 -288q-5 -33 -31.5 -57t-60.5 -24l-431 -31h-2v0zM384 142z" />
    <glyph glyph-name="saoma" unicode="&#xe602;" 
d="M424 697v0h-220q-34 0 -58.5 -24t-24.5 -58v0v-208q0 -3 1 -7q5 -29 28 -49t54 -20h220v0q29 2 50.5 21.5t26.5 47.5q1 4 1 7v208v0q0 33 -23 56.5t-55 25.5zM458 419q0 -19 -13 -31.5t-31 -12.5h-206q-18 0 -30.5 12.5t-12.5 31.5v191q0 18 12.5 31t30.5 13h206
q18 0 31 -13t13 -31v-191zM902 617q0 32 -22 55t-54 25v0h-192q-33 0 -57 -23.5t-24 -56.5v0v-203q0 -3 1 -6q5 -29 27.5 -48.5t52.5 -19.5h192v0q28 2 49 21t26 47q1 3 1 6v203v0zM859 425q0 -17 -12.5 -29.5t-29.5 -12.5h-178q-18 0 -30.5 12.5t-12.5 29.5v187
q0 18 12.5 30.5t30.5 12.5h178q17 0 29.5 -12.5t12.5 -30.5v-187zM416 272v0h-214q-34 0 -57.5 -23.5t-23.5 -56.5v0v-202q0 -3 1 -7q5 -29 27.5 -48t52.5 -19h214v0q28 2 49 21t25 46q2 4 2 7v202v0q-1 32 -23 55t-53 25zM449 1q0 -18 -12.5 -30.5t-30.5 -12.5h-193v0h-7
q-18 0 -30.5 12.5t-12.5 30.5v186q0 18 12.5 30.5t30.5 12.5h200q18 0 30.5 -12.5t12.5 -30.5v-186zM721 59q-11 0 -19 -7.5t-8 -18.5v-51q0 -11 8 -18.5t19 -7.5t19 7.5t8 18.5v51q0 11 -8 18.5t-19 7.5zM835 85q-11 0 -19 -7.5t-8 -18.5v-77q0 -11 8 -18.5t19 -7.5
t18.5 7.5t7.5 18.5v77q0 11 -7.5 18.5t-18.5 7.5zM835 239q-11 0 -19 -7.5t-8 -18.5v-51q0 -11 8 -18.5t19 -7.5t18.5 7.5t7.5 18.5v51q0 11 -7.5 18.5t-18.5 7.5zM721 239q-11 0 -19 -7.5t-8 -18.5v-103q0 -10 8 -17.5t19 -7.5t19 7.5t8 17.5v103q0 11 -8 18.5t-19 7.5z
M606 110q-11 0 -19 -7.5t-8 -17.5v-103q0 -11 8 -18.5t19 -7.5t19 7.5t8 18.5v103q0 10 -8 17.5t-19 7.5zM606 239q-11 0 -19 -7.5t-8 -18.5v-26q0 -10 8 -17.5t19 -7.5t19 7.5t8 17.5v26q0 11 -8 18.5t-19 7.5z" />
    <glyph glyph-name="xiaoshouhuodong" unicode="&#xe621;" 
d="M151 -72q5 81 42.5 153.5t100.5 122.5l5 4v0q7 4 16 4q31 0 31 -25q0 -15 -11 -24v0l-5 -3q-106 -78 -118 -233v-1v-1v-2q0 -13 -8.5 -22t-21.5 -9q-12 0 -21 8.5t-10 21.5v0v6v0zM250 454q0 117 82 200t198 83t198 -83t82 -200q0 -63 -26 -119.5t-74 -97.5
q86 -47 139 -130.5t60 -182.5v-5v-1v0v0v-1q0 -11 -7.5 -19t-18.5 -8t-18.5 8t-7.5 19v1v0l-1 5q-7 94 -60.5 170t-136.5 110q-68 -32 -129 -32q-64 0 -122 28l-28 17l-23 16q-51 40 -79 98.5t-28 123.5v0zM530 228q92 0 158 66.5t66 160t-65.5 159.5t-158.5 66t-158.5 -66
t-65.5 -159.5t65.5 -160t158.5 -66.5v0zM527 -144l-103 98l32 196h139l25 -196zM475 -29l50 -47l44 47l-16 131h-56z" />
    <glyph glyph-name="wode" unicode="&#xe61c;" horiz-adv-x="1048" 
d="M818 16q0 -12 -8.5 -20.5t-21 -8.5t-21 8.5t-8.5 20.5v0h-1q-10 85 -74.5 143t-151.5 60h-3.5h-4h-4h-3.5q-87 -2 -151.5 -60t-74.5 -143h-1v0q0 -12 -8.5 -20.5t-21 -8.5t-21 8.5t-8.5 20.5v3q0 5 2 10q11 76 58 136t117 89q-42 28 -66 72.5t-24 95.5q0 84 60.5 143.5
t146 59.5t146 -59.5t60.5 -143.5q0 -51 -24.5 -95.5t-65.5 -71.5q71 -30 118 -91t57 -137q2 -5 2 -8v-3v0v0zM672 422q0 60 -43.5 102.5t-104.5 42.5t-104 -42.5t-43 -102.5t43 -102.5t104 -42.5t104.5 42.5t43.5 102.5v0v0zM1047 300q0 104 -41.5 199t-111.5 163.5
t-167 109t-203.5 40.5t-203.5 -40.5t-167 -109t-111.5 -163.5t-41.5 -199q0 -182 116 -321.5t294 -178.5q50 -12 114 -12t114 12q177 39 293 178.5t116 321.5v0v0zM802 -50v1q-115 -87 -258 -93h-1h-9h-1h-9h-9h-2h-9v0v0q-144 6 -258 93v-1q-82 62 -129 153.5t-47 196.5
q0 90 36 172t96.5 141t144.5 94t177 35q120 0 222.5 -56.5t164.5 -154t66 -214.5v-17q0 -105 -47 -196.5t-128 -153.5v0v0z" />
    <glyph glyph-name="vip" unicode="&#xe620;" 
d="M869 481q0 105 -74.5 179.5t-179.5 74.5t-179.5 -74.5t-74.5 -179.5q0 -72 36.5 -132t97.5 -92q-126 -39 -206.5 -146.5t-80.5 -242.5q0 -10 7 -17t17 -7t17 7t7 17q0 97 48 179.5t130.5 130.5t178.5 48q4 0 8 1q103 2 175.5 76t72.5 178zM615 275q-85 0 -145.5 60.5
t-60.5 145.5t60.5 145t145.5 60t145 -60t60 -145t-60 -145.5t-145 -60.5zM903 155q-7 7 -17 7t-17 -7t-7 -17t7 -17q50 -51 77 -116.5t27 -136.5q0 -10 7.5 -17t17.5 -7t17 7t7 17q0 81 -30.5 155t-88.5 132zM359 269v0v0q0 10 -7.5 17.5t-17.5 7.5q-66 0 -112.5 49.5
t-46.5 120.5q0 70 46.5 120t112.5 50q10 0 17.5 7t7.5 17.5t-7.5 17.5t-17.5 7q-86 0 -147 -64.5t-61 -154.5q0 -59 28 -109.5t75 -79.5q-99 -35 -162 -126t-63 -204q0 -10 7 -17.5t17 -7.5t17 7.5t7 17.5q0 124 83 212t199 88q10 0 17.5 7t7.5 17z" />
    <glyph glyph-name="icon" unicode="&#xe617;" 
d="M792 -149h-560q-46 0 -79 33t-33 79v560q0 46 33 79t79 33h84v56h76q18 25 50 40.5t70 15.5t70 -15.5t51 -40.5h75v-56h84q47 0 79.5 -33t32.5 -79v-560q0 -46 -32.5 -79t-79.5 -33zM652 635h-62q0 23 -23 39.5t-55 16.5t-55 -16.5t-23 -39.5h-62v-112h280v112zM848 523
q0 23 -16.5 39.5t-39.5 16.5h-84v-112h-392v112h-84q-23 0 -39.5 -16.5t-16.5 -39.5v-560q0 -23 16.5 -39.5t39.5 -16.5h560q23 0 39.5 16.5t16.5 39.5v560zM708 19h-392q-11 0 -19.5 8t-8.5 19.5t8.5 20t19.5 8.5h392q12 0 20 -8.5t8 -20t-8 -19.5t-20 -8zM708 159h-392
q-11 0 -19.5 8t-8.5 19.5t8.5 20t19.5 8.5h392q12 0 20 -8.5t8 -20t-8 -19.5t-20 -8zM708 299h-392q-11 0 -19.5 8t-8.5 19.5t8.5 20t19.5 8.5h392q12 0 20 -8.5t8 -20t-8 -19.5t-20 -8z" />
    <glyph glyph-name="huanzhuo" unicode="&#xe665;" 
d="M33 428h322q14 0 22.5 9t8.5 22q0 14 -9.5 22.5t-21.5 8.5h-247q57 117 165.5 188t238.5 71q110 0 206.5 -51t159 -138.5t77.5 -194.5h67q-16 124 -87 226.5t-182.5 161.5t-240.5 59q-142 0 -260 -71.5t-187 -191.5v232q0 12 -9 21.5t-23 9.5q-12 0 -21.5 -10t-9.5 -21
v-322q0 -14 7.5 -22t15.5 -9h8v0zM994 172h-321q-14 0 -23 -9t-9 -22q0 -14 9.5 -22.5t22.5 -8.5h243q-53 -116 -163 -185.5t-241 -69.5q-110 0 -206.5 50.5t-159 138.5t-78.5 195h-62q15 -126 86 -229t181.5 -162.5t238.5 -59.5q142 0 261.5 71.5t185.5 191.5v-232
q0 -14 9.5 -22.5t21.5 -8.5q15 0 23.5 9.5t8.5 21.5v322q2 14 -5 22t-15 9h-8v0zM994 172z" />
    <glyph glyph-name="saoma1" unicode="&#xe618;" 
d="M848 358h-672q-11 0 -18.5 7.5t-7.5 18t7.5 18t18.5 7.5h672q11 0 18.5 -7.5t7.5 -18t-7.5 -18t-18.5 -7.5zM770 47h-142q-11 0 -18.5 8t-7.5 18.5t7.5 18t18.5 7.5h142q11 0 18.5 7.5t7.5 18.5v129q0 11 7.5 18.5t18.5 7.5t18.5 -7.5t7.5 -18.5v-129q0 -32 -22.5 -55
t-55.5 -23zM401 47h-148q-32 0 -54.5 23t-22.5 55v129q0 11 7.5 18.5t18 7.5t18.5 -7.5t8 -18.5v-129q0 -11 7.5 -18.5t17.5 -7.5h148q10 0 18 -7.5t8 -18t-8 -18.5t-18 -8zM201.5 487q-10.5 0 -18 7.5t-7.5 18.5v129q0 32 22.5 55t54.5 23h148q10 0 18 -8t8 -18.5t-8 -18
t-18 -7.5h-148q-10 0 -17.5 -7.5t-7.5 -18.5v-129q0 -11 -8 -18.5t-18.5 -7.5zM822 487q-11 0 -18.5 7.5t-7.5 18.5v129q0 11 -7.5 18.5t-18.5 7.5h-142q-11 0 -18.5 7.5t-7.5 18t7.5 18.5t18.5 8h142q33 0 55.5 -23t22.5 -55v-129q0 -11 -7.5 -18.5t-18.5 -7.5v0z" />
    <glyph glyph-name="xiaoxi" unicode="&#xe638;" 
d="M511 832q-119 0 -220 -51.5t-159.5 -139.5t-58.5 -192q0 -89 44 -167t120 -132v-194l192 116q42 -6 82 -6q119 0 220 51t159.5 139.5t58.5 192.5t-58.5 192t-159.5 139.5t-220 51.5zM511 129q-35 0 -71 7l-24 3l-115 -69v113l-27 19q-65 46 -101 110.5t-36 136.5
q0 86 50 159.5t136.5 116.5t188 43t187.5 -43t136 -116.5t50 -160t-50 -160t-136 -116.5t-188 -43zM321 450zM259 449.5q0 25.5 18 44t44 18.5t44.5 -18.5t18.5 -44t-18.5 -44t-44.5 -18.5t-44 18.5t-18 44zM513 450zM451 449.5q0 25.5 18.5 44t44 18.5t44 -18.5t18.5 -44
t-18.5 -44t-44 -18.5t-44 18.5t-18.5 44zM706 448zM643 447.5q0 25.5 18.5 44t44 18.5t44 -18.5t18.5 -44t-18.5 -44t-44 -18.5t-44 18.5t-18.5 44z" />
    <glyph glyph-name="fenlei" unicode="&#xe631;" 
d="M241 896q100 0 171 -71l0.5 -0.5l0.5 -0.5q70 -70 70 -169v-214q0 -11 -8 -19t-19 -8h-215q-100 0 -170 71v0v0q-71 70 -71 170t70.5 170.5t170.5 70.5v0zM374 788q-55 55 -133 55t-133 -55t-55 -133t55 -133v0q55 -55 133 -55h188v188q0 77 -53 132zM708 304
q-11 0 -18.5 7.5t-7.5 18.5t7.5 19t18.5 8h74q100 0 170 -71l0.5 -0.5t1.5 -0.5q69 -71 69 -169q0 -100 -71 -170v-1q-71 -70 -170.5 -70t-170.5 70v0v0q-71 71 -71 171v214q0 11 8 19t19 8t18.5 -8t7.5 -19v-214q0 -78 56 -133v0q55 -55 133 -55t133 55t55 133
q0 77 -54 131l-1 2q-55 55 -133 55h-74zM241 -72q78 0 133 55t55 133v188h-188q-78 0 -133 -55t-55 -133t55 -133l2 -1q54 -54 131 -54v0zM412 -55q-71 -70 -171 -70q-98 0 -169 69l-0.5 0.5l-0.5 0.5q-71 71 -71 171t70.5 170.5t170.5 70.5h215q11 0 19 -8t8 -19v-214
q0 -100 -71 -170v-1zM782 843q-78 0 -133.5 -55t-55.5 -133v-188h189q78 0 133 55t55 133t-55 133v0q-55 55 -133 55v0zM611 825q71 71 171 71t170 -71v0v0q71 -70 71 -170t-71 -170v0q-71 -71 -170 -71h-215q-11 0 -19 8t-8 19v214q0 100 71 170v0z" />
    <glyph glyph-name="pifaguize" unicode="&#xe627;" 
d="M896 43v298q0 18 -12.5 30.5t-30.5 12.5h-298v299q0 17 -12.5 29.5t-30.5 12.5h-299q-17 0 -29.5 -12.5t-12.5 -29.5v-640h-43v-43h811v43h-43zM512 43h-299v298h299v-298zM512 384h-299v299h299v-299zM853 43h-298v298h298v-298zM256 640h213v-85h-213v85zM256 299h213
v-86h-213v86zM597 299h214v-86h-214v86z" />
    <glyph glyph-name="tuihuanhuobaozhang" unicode="&#xe624;" 
d="M517 -128q-46 0 -104.5 24.5t-116 68t-106.5 97.5t-79.5 120.5t-30.5 129.5v434h43q10 0 30.5 1.5t72 11.5t96.5 28q28 12 56 25.5t47.5 24t34.5 19.5t23 14l8 5l26 21l25 -19q68 -48 170 -88q44 -18 93 -28.5t68 -12t28 -1.5h43v-433q0 -64 -29.5 -130.5t-77.5 -121
t-104 -98t-113.5 -68t-102.5 -24.5v0v0v0zM149 662v-350q0 -48 28 -101.5t72 -98.5t94 -82t96.5 -58.5t77.5 -21.5q30 0 75.5 21.5t94 58.5t91 82t70 98.5t27.5 101.5v350q-115 13 -195 45q-90 37 -162 82q-76 -48 -161 -82q-80 -30 -208 -45v0v0v0zM326 400q-9 0 -14.5 7.5
t-5.5 16.5v16q0 13 17 26l115 102q17 16 28 0l14 -14q16 -17 0 -28l-67 -62h285q9 0 14.5 -6t5.5 -15v-21q0 -9 -6 -14.5t-14 -5.5h-372v-2v0v0zM699 336q9 0 15 -7.5t6 -16.5v-16q0 -13 -18 -26l-115 -102q-16 -16 -27 0l-16 14q-16 17 0 28l67 62h-285q-9 0 -14.5 6
t-5.5 15v21q0 9 6 14.5t14 5.5h373v2v0v0zM322 405z" />
    <glyph glyph-name="4" unicode="&#xe74b;" 
d="M911 659v0h-91v123q0 14 -9.5 23.5t-23.5 9.5h-555q-14 0 -24 -10t-10 -23v-123h-91q-13 0 -23 -10t-10 -24v-185q0 -80 56 -136h1q49 -49 117 -57q38 -59 98 -96.5t130 -45.5v-83h-146q-13 0 -23 -10t-10 -24q0 -13 10 -23t23 -10h358q14 0 24 10t10 23q0 14 -10 24
t-24 10h-145v83q69 8 129.5 45.5t98.5 96.5q66 8 115 55l2 2q56 57 56 136v185q0 14 -9.5 24t-23.5 10v0v0zM178 351v0q-37 38 -37 89v152h57v-182q1 -43 13 -84q-18 9 -33 25v0v0zM753 412v0v-3q-1 -56 -27 -107l-1 -1q-32 -59 -90 -94.5t-125.5 -35.5t-126 35.5
t-90.5 94.5l-1 1q-26 51 -27 110v0v3v333h488v-336v0v0zM877 440v0q0 -51 -37 -89l-1 -2q-16 -15 -31 -23q11 40 12 84v1v181h57v-152v0v0zM549 517l-28 86q-2 6 -8 8q-12 4 -16 -8l-28 -86h-90q-7 0 -10 -5q-8 -10 2 -18l74 -53l-28 -86v0q-2 -6 2 -11q7 -10 17 -3l73 53
l73 -53q5 -4 12 -2q12 4 8 16l-28 86l73 53q5 4 5 11v0q0 5 -3.5 8.5t-8.5 3.5h-91v0zM552 456v0q-8 -5 -5 -14l19 -58l-49 36q-8 6 -15 0v0l-50 -36l19 58q4 9 -4 14l-50 36h62q10 0 12 9l18 58l19 -59q3 -8 12 -8v0h61l-49 -36v0v0zM552 456z" />
    <glyph glyph-name="weibiaoti1" unicode="&#xe603;" 
d="M383 807h-169q-51 0 -88 -37t-37 -88v-169q0 -51 37 -86.5t88 -35.5h291v291q0 52 -35.5 88.5t-86.5 36.5zM444 452h-230q-25 0 -44 18t-19 43v169q0 26 19 44.5t44 18.5h169q26 0 43.5 -18.5t17.5 -44.5v-230zM857 807h-169q-51 0 -88 -37t-37 -88v-291h294
q52 0 87 35.5t35 86.5v169q0 52 -35.5 88.5t-86.5 36.5zM917 513q0 -26 -17 -43.5t-43 -17.5h-233v230q0 26 19.5 44.5t44.5 18.5h169q26 0 43 -18.5t17 -44.5v-169zM89 208v-169q0 -51 37 -86.5t88 -35.5h169q51 0 86.5 35.5t35.5 86.5v294h-291q-51 0 -88 -37t-37 -88z
M444 39q0 -25 -17.5 -42.5t-43.5 -17.5h-169q-26 0 -44.5 17.5t-18.5 42.5v169q0 26 19 45t44 19h230v-233zM857 333h-294v-294q0 -51 37 -86.5t88 -35.5h169q52 0 87 35.5t35 86.5v169q0 52 -35.5 88.5t-86.5 36.5zM917 39q0 -25 -17 -42.5t-43 -17.5h-169q-26 0 -45 17.5
t-19 42.5v233h233q26 0 43 -19t17 -45v-169z" />
    <glyph glyph-name="16" unicode="&#xe63b;" horiz-adv-x="1145" 
d="M1088 575l-417 288q-34 28 -73.5 31.5t-65.5 -7t-46 -26.5l-442 -304q-52 -34 -43 -71q9 -33 61 -37h2h104v-459q0 -49 32.5 -83.5t79.5 -34.5h305q14 0 23 10q10 10 10 23v273h151q12 0 21.5 9t9.5 22t-9.5 22t-21.5 9h-151v69h151q12 0 21.5 9.5t9.5 22.5t-9.5 22
t-21.5 9h-108l111 119q9 10 8.5 22.5t-9.5 21.5t-22 8.5t-22 -9.5l-140 -151l-137 152q-8 9 -21 10t-22.5 -8t-10 -21.5t7.5 -22.5l109 -121h-107q-13 0 -22 -9t-9 -22t9 -22.5t22 -9.5h150v-69h-150q-13 0 -22 -9t-9 -22t9 -22t22 -9h150v-243h-276q-21 0 -35.5 16
t-14.5 39v485q0 1 -0.5 2t-0.5 2v0.5v0.5q0 13 -9 22t-22 9h-111l436 299q1 1 3 2q5 4 12.5 8.5t22.5 10t34.5 2t37.5 -18.5q1 0 1.5 -0.5l0.5 -0.5l417 -289q10 -8 20 -18q-7 -1 -14 0l-99 -1h-1v0h-0.5h-0.5q-13 0 -22 -9t-9 -22v-484q0 -23 -14.5 -39t-35.5 -16h-158
q-13 0 -22 -9.5t-9 -22.5t9 -22t22 -9h158q47 0 79.5 34.5t32.5 83.5v453h69q72 -1 85 37q15 44 -54 95z" />
    <glyph glyph-name="yanfajihua" unicode="&#xe65c;" 
d="M512 832q-91 0 -174 -35.5t-143 -95.5t-95.5 -143t-35.5 -174t35.5 -174t95.5 -143t143 -95t174 -35t174 35t143 95t95 143t35 174t-35 174t-95 143t-143 95.5t-174 35.5zM512 -25q-111 0 -205.5 54.5t-149.5 149t-55 205.5t55 205.5t149.5 149.5t205.5 55t205.5 -55
t149 -149.5t54.5 -205.5t-54.5 -205.5t-149 -149t-205.5 -54.5zM375 194l-29 -30q-8 -8 0 -16q9 -9 17 0l29 29q8 8 0 17q-8 7 -17 0v0v0v0zM596 543v0q-30 0 -51.5 -21.5t-21.5 -51.5t21.5 -51.5t51.5 -21.5t51.5 21.5t21.5 51.5t-21.5 51.5t-51.5 21.5v0v0v0zM596 420v0
q-20 0 -34.5 15t-14.5 35t14.5 34.5t34.5 14.5q21 0 35.5 -14.5t14.5 -35t-14.5 -35t-35.5 -14.5v0v0v0zM290 220v0l29 29q9 8 0 17q-8 9 -17 0l-29 -30q-8 -8 0 -16q9 -8 17 0v0v0v0zM670 296v0q62 63 85.5 148t0.5 170v1v0q-3 11 -14 14q-86 23 -171 0q-86 -23 -148 -85v0
l-4 -4q-30 8 -61 1q-37 -8 -64 -35q-30 -29 -37 -71q-6 -42 12 -79q2 -3 4 -5q5 -6 13.5 -6t13.5 5q13 12 27 17l5 2q-3 -15 -3 -17q-3 -24 -3 -45q0 -9 6 -15l88 -87q5 -6 13 -6q21 -1 47 2q1 1 16 3l-2 -4q-6 -16 -17 -26q-3 -4 -3 -5q-4 -7 -1.5 -15t10.5 -11
q37 -19 79 -12q40 6 70 35l1 1q27 28 35 64q6 30 -2 61l3 3l1 1v0v0zM643 324v0l-6 -5l-6 -6q-10 -9 -6 -22q10 -26 4.5 -51t-24.5 -44l-1 -1q-20 -20 -49 -25q-17 -2 -32 1q6 13 7 15q9 20 10 44q0 8 -5.5 14t-13.5 7q-2 0 -6 -1q-21 -6 -40 -9q-17 -2 -34 -2l-76 76
q1 17 3 34q3 20 8 41q2 7 -2 14t-12 10h-6q-23 -1 -44 -10q-8 -3 -15 -8q-4 16 -1 33q5 28 26 50q20 19 45 24q27 5 51 -4q13 -5 22 6l6 6l5 5q54 55 130 75q70 19 140 3q15 -70 -3 -140q-21 -75 -75 -130v0v0v0zM356 229v0q-8 9 -17 0l-66 -66q-9 -8 0 -16q8 -9 16 0l67 66
q8 9 0 16v0v0v0zM356 229z" />
    <glyph glyph-name="weixiuzizhi" unicode="&#xe612;" 
d="M393 7h-253q-26 0 -44 19t-18 45v685q0 27 18 45.5t44 18.5h644q25 0 43 -18.5t18 -45.5v-260h-61v260l-644 2v-687l253 -2v-62v0v0zM229 670h435v-62h-435v62v0zM229 520h350v-62h-350v62v0zM229 369h235v-61h-235v61v0zM229 219h235v-62h-235v62v0zM944 40l-93 174
q15 34 15 71q1 73 -51 125t-125 52.5t-125 -51t-52 -125.5q0 -37 15 -72l-95 -172q-5 -9 1.5 -17.5t16.5 -6.5l81 18l27 -77q3 -9 14 -10h0.5h0.5q9 0 14 8l83 154q17 -2 18 -2l16 2l84 -155q4 -8 14 -8h1q10 1 14 10l28 77l81 -19q10 -2 16 6t1 18v0zM573 61l-10 28
q-2 7 -9 5l-30 -6l42 76q16 -16 46 -32l-39 -71v0zM689 173.5q-47 0.5 -80 33.5t-32.5 79.5t33.5 79.5t79.5 33t79.5 -33t33 -80t-33 -80t-80 -32.5zM827 82q-8 2 -11 -6l-12 -33l-45 83q35 20 54 38l50 -90l-36 8v0z" />
    <glyph glyph-name="huiyuan" unicode="&#xe608;" horiz-adv-x="1242" 
d="M571 252q59 52 95.5 135.5t36.5 155.5q0 108 -77.5 189t-180.5 81t-180.5 -81t-77.5 -189q0 -72 37 -155.5t96 -135.5q-147 -28 -233.5 -111.5t-86.5 -201.5q0 -42 68 -50q35 -5 96 -9q129 -7 281 -7q177 0 281 7q62 3 96 9q12 2 16.5 3t16.5 4.5t18 8.5t11.5 14t5.5 20
q1 117 -86 201t-233 112zM266 543q0 71 52.5 131t126.5 60t126 -60t52 -131q0 -51 -24.5 -113t-67.5 -108t-86 -46t-86 46t-68 108t-25 113zM81 -34q7 54 41 97t86 68.5t113 39t125 13.5t125 -13.5t112.5 -39t86 -68.5t41.5 -97q-89 -15 -365.5 -15t-364.5 15zM931 347
q53 53 86 132t33 147q0 108 -77.5 189t-180.5 81q-54 0 -104 -25t-88 -70l60 -50q55 66 132 66q74 0 126.5 -60t52.5 -131q0 -51 -25 -113t-67.5 -108t-86.5 -46v0q-43 0 -100 -7l11 -78q52 7 92 7q64 0 125 -13t112.5 -39t86 -68.5t41.5 -97.5q-93 -13 -340 -14v-79
q145 0 266 7q36 2 56 3.5t42 5.5t32.5 10t17.5 16t7 24q-1 116 -85 199t-225 112zM843 9h-14h14z" />
    <glyph glyph-name="lianwangkeyunzhanshoupiaofuwuzhiliangtongji" unicode="&#xe71e;" 
d="M518 767q-124 0 -211.5 -89t-87.5 -214.5t88 -214.5t211.5 -89t211 89t87.5 214.5t-87.5 214.5t-211.5 89v0v0zM518 212q-102 0 -174.5 74t-72.5 178t72.5 177.5t174.5 73.5t174.5 -73.5t73 -177.5t-72.5 -178t-175 -74v0v0zM807 204l-16 8l-13 -12q-48 -44 -116 -68
t-144 -24t-144 24t-116 68l-13 12l-16 -8q-98 -53 -143 -122.5t-53 -179.5q-1 -11 6 -19t18 -9h0.5h0.5q11 0 18 7t8 17q7 93 41.5 149.5t112.5 101.5q54 -45 127 -69t153 -24t153 24t127 69q78 -45 113 -101.5t41 -149.5q1 -11 9 -18t18.5 -6t17.5 9t6 19q-8 110 -53 179.5
t-143 122.5v0v0zM177 342v230q28 120 123 196t219 76q122 0 216.5 -74.5t123.5 -192.5v-232v0q51 0 86 35.5t35 86.5q0 36 -18.5 65.5t-49.5 44.5q-31 140 -140.5 229.5t-253 89.5t-253 -89t-139.5 -229q-31 -15 -50 -45t-19 -66q0 -51 35 -88t85 -37v0v0z" />
    <glyph glyph-name="xiangmu1" unicode="&#xe780;" horiz-adv-x="1029" 
d="M949 157l-436 -191l-433 193l-3 -6l2 7q-28 9 -66 30l-13 7v-15q0 -53 34 -71l429 -192q30 -14 50 -14t52 14l429 192q34 15 34 71v15l-41 -21q-35 -18 -38 -19zM31 512l432 -193q31 -14 51 -14t53 14l432 193q28 13 30 52q1 42 -29 59l-432 225q-27 16 -51 16
q-23 0 -54 -16l-432 -225l-1 -1q-31 -19 -29 -59q1 -36 30 -51zM63 569l454 240l449 -240l-449 -201zM949 359l-435 -193l-434 193l-3 -5l2 5q-26 10 -66 33l-13 8v-16q0 -55 34 -72l429 -192q30 -14 50 -14t52 14l429 192q18 8 26 28.5t8 43.5v15l-34 -17q-41 -21 -45 -23z
" />
    <glyph glyph-name="lv" unicode="&#xe67f;" 
d="M909 362h-171q-7 -2 -13 2t-8 10l-26 96l-80 -365q-2 -33 -13 -33l-29 -1q-6 -1 -12 2t-8 10l-100 494l-76 -343q-2 -16 -8.5 -23t-13.5 -5h-27q-7 -2 -13.5 1.5t-8.5 10.5l-50 144h-137q-7 0 -12 5t-5 12v21q0 7 5 12t12 5l170 1q19 0 22 -10l26 -82l74 387q4 12 16 12
h36q7 2 13 -1.5t8 -10.5l99 -490l73 352q5 18 19 14l29 1q7 1 13 -2.5t8 -10.5l50 -160h138q7 0 12 -5t5 -12v-21q0 -7 -5 -12t-12 -5v0v0v0zM909 362z" />
    <glyph glyph-name="3" unicode="&#xe60c;" 
d="M973.5 495q-8.5 0 -15 6t-6.5 15v87q0 61 -43 104t-103 43h-133l39 -39q6 -6 6 -14.5t-6 -14.5q-7 -6 -15 -6q-9 0 -15 6l-74 74q-6 6 -6 14.5t6 15.5l74 74q6 6 14.5 6t15 -6.5t6.5 -15t-7 -14.5l-38 -38h133q78 0 133 -55.5t55 -133.5v-87q0 -9 -6 -15t-14.5 -6z
M542.5 -106q-8.5 0 -14.5 6t-6 15t6 15t14.5 6t15 -6t6.5 -15t-6.5 -15t-15 -6zM542.5 1q-8.5 0 -14.5 6t-6 15t6 15t14.5 6t15 -6t6.5 -15t-6.5 -15t-15 -6zM542.5 108q-8.5 0 -14.5 6.5t-6 15t6 14.5t14.5 6t15 -6t6.5 -14.5t-6.5 -15t-15 -6.5zM542.5 215
q-8.5 0 -14.5 6.5t-6 15t6 14.5t14.5 6t15 -6t6.5 -14.5t-6.5 -15t-15 -6.5zM542.5 322q-8.5 0 -14.5 6t-6 15t6 15t14.5 6t15 -6t6.5 -15t-6.5 -15t-15 -6zM474 396h-429q-8 0 -14.5 6t-6.5 15v428q0 8 6.5 14.5t14.5 6.5h429q9 0 15 -6.5t6 -14.5v-428q0 -9 -6 -15t-15 -6
zM453 824h-387v-387h387v387zM43.5 265q8.5 0 14.5 -6t6 -15v-88q0 -60 43 -103t104 -43h133l-39 38q-6 6 -6 15t6 15t15 6t15 -6l74 -74q6 -6 6 -15t-6 -15l-74 -74q-7 -6 -15 -6q-9 0 -15 6t-6 15t6 15l39 38h-133q-78 0 -133 55t-55 133v88q0 9 6 15t14.5 6zM649.5 364
q8.5 0 15 -6t6.5 -14.5t-6.5 -15t-15 -6.5t-14.5 6.5t-6 15t6 14.5t14.5 6zM649.5 -64q8.5 0 15 -6t6.5 -15t-6.5 -15t-15 -6t-14.5 6t-6 15t6 15t14.5 6zM757 364q9 0 15 -6t6 -14.5t-6 -15t-15 -6.5t-15 6.5t-6 15t6 14.5t15 6zM757 -64q9 0 15 -6t6 -15t-6 -15t-15 -6
t-15 6t-6 15t6 15t15 6zM864 364q9 0 15 -6t6 -14.5t-6 -15t-15 -6.5t-15 6.5t-6 15t6 14.5t15 6zM864 -64q9 0 15 -6t6 -15t-6 -15t-15 -6t-15 6t-6 15t6 15t15 6zM971 364q9 0 15 -6t6 -15t-6 -15t-14.5 -6t-15 6t-6.5 15t6.5 15t14.5 6zM971.5 257q8.5 0 14.5 -6t6 -14.5
t-6 -15t-14.5 -6.5t-15 6.5t-6.5 15t6.5 14.5t15 6zM971.5 150q8.5 0 14.5 -6t6 -14.5t-6 -15t-14.5 -6.5t-15 6.5t-6.5 15t6.5 14.5t15 6zM971.5 43q8.5 0 14.5 -6t6 -15t-6 -15t-14.5 -6t-15 6t-6.5 15t6.5 15t15 6zM971 -64q9 0 15 -6t6 -15t-6 -15t-14.5 -6t-15 6
t-6.5 15t6.5 15t14.5 6z" />
    <glyph glyph-name="shouhuodizhi" unicode="&#xe670;" 
d="M955 704l-48 -46l-77 76l47 46q5 6 14.5 5.5t15.5 -7.5l45 -44q8 -7 8 -17q0 -8 -5 -13v0zM514 271l-78 77l345 339l77 -77zM373 210l25 90l66 -65zM996 776l-46 45q-27 27 -65 27q-33 0 -55 -22l-479 -469v-1.5v-0.5q-2 -2 -2 -3l-49 -177q-5 -16 8 -29q9 -9 21 -9
q4 0 8 1l179 48h1v0q3 0 6 2l479 470q22 22 22 54q0 37 -28 64v0zM939 497q-13 0 -23 -9.5t-10 -22.5v-438q0 -18 -12.5 -30t-29.5 -12h-755q-18 0 -30.5 12t-12.5 30v715q0 17 12.5 29t30.5 12h486q14 0 23.5 9.5t9.5 23t-9.5 23t-23.5 9.5h-491q-43 0 -73.5 -30t-30.5 -72
v-724q0 -42 30.5 -72t73.5 -30h765q43 0 73 30t30 72v443q0 13 -9.5 22.5t-23.5 9.5v0z" />
    <glyph glyph-name="xiaoshoukucun" unicode="&#xe625;" 
d="M326 391l-129 77q-8 5 -16.5 2.5t-13.5 -10t-2.5 -16.5t10.5 -13l129 -78q8 -5 16.5 -2.5t13 10.5t2.5 16.5t-10 13.5zM464 -63q9 -3 17 2q-9 -4 -17 -2zM326 391l-129 77q-8 5 -16.5 2.5t-13.5 -10t-2.5 -16.5t10.5 -13l129 -78q8 -5 16.5 -2.5t13 10.5t2.5 16.5
t-10 13.5zM326 391l-129 77q-8 5 -16.5 2.5t-13.5 -10t-2.5 -16.5t10.5 -13l129 -78q8 -5 16.5 -2.5t13 10.5t2.5 16.5t-10 13.5zM326 391l-129 77q-8 5 -16.5 2.5t-13.5 -10t-2.5 -16.5t10.5 -13l129 -78q8 -5 16.5 -2.5t13 10.5t2.5 16.5t-10 13.5zM326 391l-129 77
q-8 5 -16.5 2.5t-13.5 -10t-2.5 -16.5t10.5 -13l129 -78q8 -5 16.5 -2.5t13 10.5t2.5 16.5t-10 13.5zM326 391l-129 77q-8 5 -16.5 2.5t-13.5 -10t-2.5 -16.5t10.5 -13l129 -78q8 -5 16.5 -2.5t13 10.5t2.5 16.5t-10 13.5zM481 -61q-8 -5 -17 -2q8 -2 17 2zM492 -4v389
l343 194l35 21q7 5 9 15q1 15 -12 22l-387 194q-10 4 -20 0l-387 -194q-12 -8 -12 -33v-413q0 -12 10 -19q379 -229 386 -231q15 -8 27 -2l127 73q8 5 10 14t-2.5 17t-13.5 10.5t-17 -2.5l-87 -51v1zM448 385v-388l-343 207v376zM470 423l-341 193l341 170l340 -170zM775 28
l178 107q8 5 8 14v196q0 9 -11 14l-4 3h-2h1l-172 86q-8 4 -15 0l-173 -86q-15 -6 -15 -22v-191q0 -9 8 -14q176 -106 177 -106v0q1 -1 3 -2t7.5 -2t9.5 3zM749 71l-146 88v157l146 -82v-163zM765 263l-141 80l141 71l142 -71zM927 159l-145 -88v163l145 82v-157z" />
    <glyph glyph-name="0804xiaoshoupinneirong" unicode="&#xe666;" 
d="M485 -18h-229q-35 0 -60.5 25t-25.5 61v629q0 36 25.5 61t60.5 25h515q36 0 61 -25t25 -61v-401q0 -29 -14 -63t-35 -55l-148 -148q-30 -30 -59.5 -17.5t-29.5 55.5v114q0 35 25 60.5t61 25.5h114q22 0 25.5 3.5t3.5 24.5v401q0 12 -8.5 20.5t-20.5 8.5h-515
q-12 0 -20 -8.5t-8 -20.5v-629q0 -12 8 -20.5t20 -8.5h229q12 0 20.5 -8.5t8.5 -20.5t-8.5 -20t-20.5 -8zM657 211q-12 0 -20.5 -8.5t-8.5 -20.5v-103l131 132h-102zM714 554h-401q-11 0 -19.5 8.5t-8.5 20t8.5 20t19.5 8.5h401q12 0 20.5 -8.5t8.5 -20t-8.5 -20t-20.5 -8.5
zM714 382h-401q-11 0 -19.5 8.5t-8.5 20.5t8.5 20.5t19.5 8.5h401q12 0 20.5 -8.5t8.5 -20.5t-8.5 -20.5t-20.5 -8.5z" />
    <glyph glyph-name="retail" unicode="&#xe6e5;" 
d="M453 -92q-37 0 -87 50l-280 280q-50 49 -50 86t50 87l442 441q9 10 23 9l375 -37q1 -1 3 -1q10 -2 16.5 -9.5t6.5 -17.5l37 -373q1 -14 -8 -24l-442 -441q-49 -50 -86 -50zM559 802l-432 -432q-33 -33 -33 -46t33 -45l280 -280q33 -33 46 -33t45 33l432 432l-33 337z
M214 278q-6 0 -11 4q-18 19 -22.5 34.5t2.5 28.5t25 31l131 132q11 10 21 -0.5t0 -20.5l-132 -132q-20 -20 -20.5 -27.5t16.5 -24.5q10 -11 0 -21q-4 -4 -10 -4zM379 512q-6 0 -10 5q-10 10 0 20l12 12q10 10 20 0t0 -21l-12 -11q-4 -5 -10 -5zM724.5 479q-49.5 0 -85 35.5
t-35.5 85t35.5 85t85 35.5t85 -35.5t35.5 -85t-35.5 -85t-85 -35.5zM724.5 662q-25.5 0 -44 -18.5t-18.5 -44t18.5 -44t44 -18.5t44 18.5t18.5 44t-18.5 44t-44 18.5z" />
    <glyph glyph-name="xiangmu2" unicode="&#xe6c9;" 
d="M816 426h-419q-9 0 -16 -6.5t-7 -16t7 -16.5t16 -7h419q9 0 15.5 7t6.5 16.5t-6.5 16t-15.5 6.5zM816 233h-419q-9 0 -16 -6.5t-7 -16t7 -16.5t16 -7h419q9 0 15.5 7t6.5 16.5t-6.5 16t-15.5 6.5zM936 678h-300l-5 15q-43 120 -155 125h-389q-24 0 -41.5 -17t-17.5 -42
v-736q0 -24 17.5 -41t41.5 -17h849q25 0 42.5 17t17.5 41v596q0 25 -17.5 42t-42.5 17zM72 731q0 8 0.5 13.5t3 10t3.5 7t6.5 4.5t8.5 3t11.5 1.5t13.5 0.5t18 -0.5t21 -0.5h247q73 0 104 -13.5t48 -43.5l16 -35h-501v53zM947 82q0 -26 -3.5 -40t-16 -20.5t-24 -8
t-37.5 -1.5h-708q-54 0 -68 13t-14 69v536h804q13 0 22.5 -0.5t16.5 -3.5t12 -4.5t8 -8t5 -9t2.5 -12t1 -12t0 -15t-0.5 -16.5v-455v-12zM183 443h75v-75h-75v75zM183 248h75v-75h-75v75z" />
    <glyph glyph-name="weihukehuguanxi" unicode="&#xe695;" 
d="M901 182q-51 0 -86.5 35.5t-35.5 86.5v4l-69 16q-22 -72 -85 -112l58 -101q17 5 35 5q51 0 86.5 -35.5t35.5 -86t-35.5 -86.5t-86 -36t-86.5 36t-36 86q0 62 50 99l-58 100q-36 -14 -75 -14q-88 0 -149 63l-135 -106q15 -28 15 -59q0 -51 -35.5 -86.5t-86 -35.5
t-86.5 35.5t-36 86.5t36 86.5t86 35.5q48 0 83 -32l134 106q-32 51 -32 112q0 74 46 130l-159 160q-32 -23 -71 -23q-51 0 -86.5 35.5t-35.5 86t35.5 86.5t86 36t86.5 -36t36 -86q0 -40 -23 -71l159 -159q57 47 132 47q26 0 52 -6l32 81q-29 16 -46.5 44.5t-17.5 63.5
q0 50 35.5 86t86 36t86.5 -36t36 -86.5t-36 -86t-86 -35.5q-11 0 -23 2l-32 -82q54 -25 86.5 -75.5t32.5 -111.5q0 -11 -1 -21l69 -16q14 35 44.5 56.5t69.5 21.5q50 0 86 -35.5t36 -86.5t-36 -86.5t-86 -35.5v0zM636 -7q0 -34 24 -58t58 -24t58.5 24t24.5 58t-24.5 58
t-58.5 24t-58 -24t-24 -58v0zM122 158q-34 0 -58 -24t-24 -58t24 -58.5t58 -24.5t58 24.5t24 58.5t-24 58t-58 24v0zM123 855q-34 0 -58 -24t-24 -58.5t24 -58.5t58 -24t58 24t24 58.5t-24 58.5t-58 24v0zM655 690q34 0 58 24t24 58.5t-24 58.5t-58 24t-58 -24t-24 -58.5
t24 -58.5t58 -24v0zM513 546q-68 0 -116 -48t-48 -116t48 -116t116 -48t116 48t48 116t-48 116t-116 48v0zM901 385q-34 0 -58 -24t-24 -58t24 -58.5t58 -24.5t58 24.5t24 58.5t-24 58t-58 24v0z" />
    <glyph glyph-name="tousujianyiicon" unicode="&#xe619;" 
d="M880 447q-8 0 -15 -6.5t-7 -15.5v-407q0 -36 -19 -52t-57 -16h-608q-38 0 -63.5 16t-25.5 52v638q0 38 26 65t63 27h388q8 0 14 5.5t6 13.5v3q0 18 -18 21h-2h-388q-56 -1 -94 -40t-36 -95v-638q0 -51 36.5 -81t93.5 -30h608q56 0 88 28.5t32 82.5v407q0 9 -6 15.5
t-16 6.5v0zM952 757v0l-81 80q-26 26 -65 26v0q-39 0 -65 -26q-434 -438 -440 -449l-3 -183q0 -13 7 -19q1 -1 3.5 -5t5.5 -6q2 -1 7.5 -4.5t7.5 -4.5l205 -4l418 455q28 30 28 70t-28 70zM538 229l-168 170l318 323l162 -155zM344 369l168 -166l-168 2v164zM926 650
l-48 -55l-157 153l55 54q16 16 34 13q24 0 44 -17l68 -65q13 -16 15.5 -41t-11.5 -42v0z" />
    <glyph glyph-name="dingdan2" unicode="&#xe668;" 
d="M672 418h-338q-7 0 -12.5 -5.5t-5.5 -13.5v-10q0 -8 5.5 -14t12.5 -6h338q8 0 13.5 6t5.5 14v10q0 8 -5.5 13.5t-13.5 5.5v0zM495 241h-161q-8 0 -13 -5.5t-5 -13.5v-10q0 -9 5 -14.5t13 -5.5h161q7 0 12.5 5.5t5.5 14.5v10q0 8 -5.5 13.5t-12.5 5.5v0zM839 832h-672
q-16 0 -27.5 -12t-11.5 -29v-814q0 -17 11.5 -29t27.5 -12h478q18 4 34 19l179 180q16 15 20 40v616q0 17 -11.5 29t-27.5 12v0v0zM829 136v6v1v-7v0zM829 182h-154q-26 0 -34.5 -9t-8.5 -35v-101h-1v-52h-432q-9 0 -15 6.5t-6 16.5v752q0 10 6 16.5t15 6.5h608
q9 0 15.5 -6.5t6.5 -16.5v-578v0v0zM672 606h-338q-7 0 -12.5 -6t-5.5 -14v-10q0 -8 5.5 -14t12.5 -6h338q8 0 13.5 6t5.5 14v10q0 8 -5.5 14t-13.5 6v0z" />
    <glyph glyph-name="fuwu" unicode="&#xe8a7;" 
d="M820.5 660q-67.5 68 -163.5 68t-164 -68l-161 -161q-8 -8 -8 -19t8 -19t19 -8t19 8l161 161q52 52 125.5 52t125.5 -52t52 -125.5t-52 -125.5l-270 -270l-270 270q-52 52 -52 125.5t52 125.5t125 52q13 0 25 -2h4q10 0 17.5 6.5t9.5 16.5q1 11 -5.5 20t-17.5 10
q-16 3 -33 3q-37 0 -71 -12q-53 -17 -92 -56q-68 -68 -68 -163.5t68 -163.5l289 -289q8 -8 19 -8t19 8l289 289q68 68 68 163.5t-67.5 163.5z" />
    <glyph glyph-name="huiyuan1" unicode="&#xe600;" 
d="M956 58q-2 98 -56 178t-141 119q41 32 64 78t23 99q0 93 -65.5 158t-158.5 65q-60 0 -111 -29q-52 29 -112 29q-92 0 -157.5 -65t-65.5 -158q0 -53 23 -99t63 -77q-86 -39 -140 -118t-57 -176l-1 -12q0 -16 11 -26.5t26 -10.5t26 10.5t11 26.5l1 1q0 101 69 175.5
t169 83.5v0q11 -2 22.5 -2t22.5 2v0q98 -9 166.5 -81t71.5 -171v-8q0 -16 11 -26.5t26 -10.5t26 10.5t11 26.5q0 7 -1 9q-1 74 -33.5 139t-87.5 111h15.5t16.5 1q21 2 40 7v0q36 -15 68.5 -37.5t62.5 -54t48.5 -76t18.5 -94.5v-4l1 -1q0 -16 10.5 -26.5t26 -10.5t26.5 10.5
t11 26.5v0q-1 7 -1 8zM398.5 379q-63.5 0 -108 44.5t-44.5 108t44.5 108.5t108 45t108.5 -45t45 -108.5t-45 -108t-108.5 -44.5zM684 398q3 1 7 3q-4 -2 -7 -3zM691 401q-3 -1 -7 -3q-22 -11 -46 -13l-15 -1h-0.5h-1.5q-24 0 -47 8q49 61 49 140t-50 141q23 8 48 8
q62 0 105.5 -43.5t43.5 -105.5q0 -42 -21.5 -77t-57.5 -54z" />
    <glyph glyph-name="7-01" unicode="&#xe61a;" 
d="M242.5 394q-10.5 0 -17.5 -7.5t-7 -17.5v-446h-151v912q0 4 3 7t7 3h131q10 0 10 -10v-140v-1q0 -11 7 -18t17.5 -7t17.5 7t7 18v1v140q0 25 -17.5 42t-41.5 17h-131q-25 0 -42 -17t-17 -42v-961h249v495v0q0 10 -7 17.5t-17.5 7.5zM602 12q-10 0 -17 -7t-7 -17v-65h-152
v265v2q0 10 -7 17t-17 7t-17.5 -7t-7.5 -17v-2v-314h250v114q0 10 -7 17t-18 7v0zM762 333v0q10 0 17 7t7 18v0v283q0 4 3 7t7 3h131q5 0 8 -3t3 -7v-121q0 -10 7 -17t17 -7t17.5 7t7.5 17v121q0 25 -17.5 42t-42.5 17h-131h-5q-22 -2 -38 -19t-16 -40v-283q0 -11 7 -18
t18 -7zM402 398q10 0 17 7.5t7 17.5v21q0 4 3 7t8 3v0v0h131q10 0 10 -10v-180q0 -10 7 -17.5t17.5 -7.5t17.5 7.5t7 17.5v180q0 24 -17.5 41.5t-41.5 17.5h-130h-1v0q-25 0 -42.5 -17.5t-17.5 -41.5v-21v0q0 -10 7.5 -17.5t17.5 -7.5v0zM962 269v0q-10 0 -17 -7.5t-7 -17.5
v0v-321h-152v240q0 10 -7 17t-17.5 7t-17.5 -7t-7 -17v-289h250v370q0 10 -7.5 17.5t-17.5 7.5zM871 317q23 -18 51 -18q35 0 59.5 25t24.5 60q0 34 -25 58t-59 24t-59 -24t-26 -58q0 -13 5 -27l-228 -170q-23 20 -54 21q-19 0 -36 -9l-262 301q23 24 23 57q-1 34 -26 58
t-59 24t-58.5 -24t-25.5 -58q0 -35 24.5 -59.5t59.5 -24.5q9 0 19 2l268 -309q-12 -20 -12 -43q0 -35 25 -60t60 -25t59.5 25t24.5 60q0 10 -3 23zM921.5 419q14.5 0 25 -10t10.5 -25t-10.5 -25t-24.5 -10q-19 0 -29 15v0h-1q-6 9 -6 20q0 15 10.5 25t25 10zM165 557
q0 14 10.5 24t24.5 10t24.5 -10t10.5 -24t-10 -24.5t-25 -10.5t-25 10.5t-10 24.5zM560 88q-15 0 -25 10t-10 25t10 25t25 10t25 -10t10 -25t-10 -25t-25 -10z" />
    <glyph glyph-name="kehugongyingshangguanli" unicode="&#xe664;" 
d="M570 286h-106l-17 -175l70 -71l70 71zM517 93l-35 18l17 140h35l18 -140zM938 -30q0 141 -82.5 254t-216.5 151q49 33 77.5 88.5t28.5 121.5q0 102 -64.5 174t-163.5 72q-100 0 -173 -73t-73 -173.5t73 -173t173 -72.5h10q71 1 132 -23.5t101 -63t69 -87t42.5 -93.5
t14.5 -84h-756q11 97 64.5 182.5t129.5 115.5q1 23 -8 32t-18 6l-9 -3q-89 -41 -149.5 -134t-61.5 -217q-1 -4 1 -10t28.5 -15.5t75.5 -9.5h685q71 0 71 30zM517 392q-77 0 -135.5 57t-58.5 136t58.5 136t135.5 57q75 0 125.5 -56t50.5 -137t-50.5 -137t-125.5 -56z" />
    <glyph glyph-name="fenlei1" unicode="&#xe601;" 
d="M67 699h252q17 0 29 12t12 29t-12 29t-29 12h-252q-16 0 -28 -12t-12 -29t12 -29t28 -12zM67 333h287q17 0 29 12t12 29t-12 29t-29 12h-287q-16 0 -28 -12t-12 -29t12 -29t28 -12zM897 60h-830q-16 0 -28 -12t-12 -29t12 -29t28 -12h830q17 0 29 12t12 29t-12 29t-29 12
zM986 306l-89 94q61 73 61 169q0 109 -77.5 186.5t-187 77.5t-187 -77.5t-77.5 -187t77.5 -187t187.5 -77.5q76 0 141 42l92 -96q12 -13 30 -13q16 0 28 11q12 12 12.5 29t-11.5 29zM693.5 386q-75.5 0 -129 53.5t-53.5 129t53.5 129t129 53.5t129 -53.5t53.5 -129
t-53.5 -129t-129 -53.5z" />
    <glyph glyph-name="shangcheng-copy" unicode="&#xe61f;" 
d="M197 -17q-32 0 -54 22t-22 53v176q0 10 7 17t17 7t17 -7t7 -17l1 -176q0 -11 8 -19t19 -8h619q11 1 19 8.5t8 18.5v179q0 10 7 17.5t17 7.5t17.5 -7.5t7.5 -17.5v-179q0 -31 -22.5 -53t-53.5 -22h-619v0zM237 305q-44 0 -77 17v3v0v0h-3h-3q-42 23 -66 63t-24 88
q0 27 9 53v1v0q0 2 1 3l83 196q9 26 32 41t53 15h542q31 0 55.5 -16t33.5 -42v0l77 -192q1 -1 1 -4v0v-1v0l1 -1q8 -26 8 -53q0 -47 -24 -87.5t-66 -63.5q-35 -19 -82 -19q-81 0 -132 61l-7 7l-6 -7q-51 -61 -131 -61t-131 61l-6 7l-7 -7q-51 -61 -131 -62v0v0zM180 366
q24 -12 57 -12q32 0 59.5 15.5t45.5 42.5v1v0q4 8 8 13v0q8 9 24 9q18 0 27 -10v-1q3 -3 6 -10l1 -1v0q17 -27 44.5 -43t59.5 -16t59.5 16t44.5 43v0l1 1q3 7 7 11v1q9 10 25 10t25 -10q4 -5 8 -12v-1v0q17 -28 45 -43.5t61 -15.5q34 1 59 14q30 16 47 45t17 63q0 20 -7 40
v3l-1 1l-76 190q-9 25 -42 27h-543q-31 0 -40 -26l-82 -193v0v-2q-7 -20 -7 -41q0 -34 17.5 -63t47.5 -45l2 -1v0v0zM243 508q-10 0 -17 7t-7 17t7 17.5t17 7.5h527q10 0 17 -7.5t7 -17.5t-7 -17t-17 -7h-527zM243 508z" />
    <glyph glyph-name="shebeiquexian" unicode="&#xe614;" 
d="M416 341q-60 0 -102 42.5t-42 102t42 102t102 42.5t102 -42.5t42 -102t-42 -102t-102 -42.5zM415.5 574q-36.5 0 -62 -26t-25.5 -62.5t25.5 -62.5t62 -26t62.5 26t26 62.5t-26 62.5t-62.5 26zM444 97h-56q-23 0 -39 16.5t-16 39.5v33q0 7 -7 9q-1 1 -3 1l-46 19
q-1 1 -3 2h-3q-5 0 -7 -2l-24 -24q-16 -16 -39 -16v0h-1q-22 0 -39 16l-39 40v0q-16 16 -16 39t16 39v0l24 24q5 5 1 11q0 1 -1 2l-19 47q-1 1 -1 2q-2 7 -9 7h-33q-23 0 -39.5 16.5t-16.5 39.5v55q0 23 16.5 39.5t39.5 16.5h33q7 0 9 6q1 1 1 3l19 46q1 1 1 3q4 6 -1 11
l-24 23q-16 16 -16 39.5t16 39.5l39 39q16 16 39 16h1q23 0 39 -16l24 -24v0q2 -2 7 -2q2 0 4 1q1 1 2 1l46 19q2 1 3 1q7 2 7 9v33q0 23 16 39.5t39 16.5h56q23 0 39 -16.5t16 -39.5v-33q0 -7 7 -9q1 0 2 -1l47 -19q1 -1 2 -1.5t4 -0.5q5 0 7 2l24 24q16 16 39 16v0
q23 0 40 -16l39 -39q16 -16 16 -39.5t-16 -39.5v0l-24 -23q-5 -5 -1 -11q0 -1 1 -3l19 -46q0 -1 1 -3q2 -6 9 -6h33v0q23 0 39.5 -16.5t16.5 -39.5v0v-56q0 -23 -16.5 -39t-39.5 -16h-33q-7 0 -9 -7q-1 -1 -1 -2l-19 -47q-1 -1 -1 -2q-4 -6 1 -11l24 -24q16 -16 16 -39v0v0
q0 -23 -16 -39l-39 -40q-17 -16 -40 -16v0v0q-23 0 -39 16v0l-24 24q-2 2 -7 2q-2 0 -3.5 -0.5t-2.5 -1.5l-47 -19q-1 0 -2 -1q-7 -2 -7 -9v-33q0 -23 -16 -39.5t-39 -16.5zM389 153h54v33q0 20 13 38t32 24l44 19q13 6 29 6q28 0 47 -18v-1l23 -23l39 39l-23 23
q-15 15 -18.5 36.5t5.5 39.5l19 44q6 19 24 32t38 13h33v55h-33q-20 0 -38 12.5t-24 31.5l-19 45q-9 18 -5.5 39.5t18.5 35.5v0l23 23l-39 39l-23 -23q-19 -19 -47 -19q-16 0 -29 7l-44 18q-19 6 -32 24t-13 38v33h-54v-33q0 -20 -13 -38t-32 -24l-44 -18q-14 -7 -29 -7
q-28 0 -47 19l-23 23l-39 -38l23 -24q15 -14 18.5 -35.5t-6.5 -39.5l-18 -45q-6 -19 -24 -31.5t-38 -12.5h-33v-55h33q20 0 38 -13t24 -32l18 -44q9 -18 6 -39.5t-18 -36.5l-23 -23l39 -39l23 24q19 18 47 18q15 0 28 -6l45 -19q19 -6 32 -24t13 -38v-33zM507 -60
q-22 43 2.5 86t73.5 48q21 2 38 -4q7 -2 12 4q61 59 188 182q6 6 4 14q-11 40 11 75t63 43q33 6 58 -8q1 -2 -4 -7q-9 -9 -27.5 -27t-27.5 -27q-12 -11 -13 -24t9 -23t23 -10t25 11q1 2 62 61q18 -46 -3 -86q-16 -30 -47 -43t-63 -3q-9 3 -15 -4q-93 -91 -186 -181
q-6 -6 -4 -15q13 -58 -30 -95q-42 -37 -95 -18q-6 2 -7 4t5 7q23 22 56 55q16 15 8 34q-6 18 -25 21q-16 2 -30 -11q-31 -30 -61 -59z" />
    <glyph glyph-name="xiaoshou1" unicode="&#xe62a;" 
d="M267 282q-19 0 -32.5 -18.5t-13.5 -44.5v-68q0 -26 13.5 -44t32.5 -18t32.5 18t13.5 44v68q0 26 -13.5 44.5t-32.5 18.5zM530 139v244q0 21 -13.5 36t-33 15t-33 -15t-13.5 -36v-244q0 -21 13.5 -35.5t33 -14.5t33 14.5t13.5 35.5zM35 696h81v-84q0 -15 10.5 -25.5
t24.5 -10.5t24.5 10.5t10.5 25.5v84h81q14 0 24.5 11t10.5 25.5t-10.5 25.5t-24.5 11h-81v85q0 14 -10.5 25t-24.5 11t-24.5 -11t-10.5 -25v-85h-81q-14 0 -24.5 -11t-10.5 -25.5t10.5 -25.5t24.5 -11zM762 151v437q0 26 -13.5 44.5t-32.5 18.5t-32.5 -18.5t-13.5 -44.5
v-437q0 -26 13.5 -44t32.5 -18t32.5 18t13.5 44zM707 896h-172q-16 0 -27.5 -12t-11.5 -28.5t11.5 -28.5t27.5 -12h346q27 0 46 -19.5t19 -48.5v-726q0 -29 -19 -48.5t-46 -19.5h-738q-27 0 -46 19.5t-19 48.5v359q0 16 -11.5 28t-27 12t-27.5 -12t-12 -28v-359
q0 -61 42.5 -105t100.5 -44h738q58 0 100.5 44t42.5 105v726q0 61 -42.5 105t-100.5 44h-174z" />
    <glyph glyph-name="shouhuo" unicode="&#xe62c;" 
d="M928 618l-76 147q-14 27 -44.5 45.5t-61.5 18.5h-468q-30 0 -61 -18.5t-45 -45.5l-76 -143q-12 -23 -20.5 -57.5t-8.5 -60.5v-482q0 -34 24.5 -58.5t58.5 -24.5h724q34 0 58.5 24.5t24.5 58.5v479q0 26 -8.5 60t-20.5 57zM145 596l76 143q7 14 24.5 24.5t32.5 10.5h468
q15 0 32.5 -10.5t24.5 -24.5l76 -146q5 -9 10 -26h-755q6 19 11 29zM902 22q0 -11 -8.5 -19.5t-19.5 -8.5h-724q-11 0 -19 8.5t-8 19.5v482v8h778q1 -10 1 -11v-479zM746 358l-140 -149l-57 56q-8 8 -19.5 8t-19.5 -8t-8 -19.5t8 -19.5l76 -76q8 -8 20 -8q5 0 11 2q7 3 11 7
l159 169q6 8 6 19t-8 19.5t-19.5 8.5t-19.5 -9zM429 318h-167q-11 -1 -19 -9t-8 -19t8 -19.5t19 -8.5h167q12 0 20 8t8 19.5t-8 20t-20 8.5zM345 199h-84q-11 0 -19 -8.5t-8 -19.5t8 -19t19 -9h84q11 0 19 8.5t8 20t-8 19.5t-19 8z" />
    <glyph glyph-name="tousu" unicode="&#xe6a8;" 
d="M802 814h-580q-53 0 -90 -37.5t-37 -90.5v-429q0 -53 37 -90.5t90 -37.5h66v-142q0 -21 20 -29q5 -3 12 -3q13 0 22 10l155 164h305q53 0 90 37.5t37 90.5v429q0 53 -37 90.5t-90 37.5zM872 257q0 -29 -20.5 -49.5t-49.5 -20.5h-329l-128 -136v136h-123q-29 0 -49.5 20.5
t-20.5 49.5v429q0 29 20.5 49.5t49.5 20.5h580q29 0 49.5 -20.5t20.5 -49.5v-429zM353 447h318v57h-318v-57z" />
    <glyph glyph-name="fuwu1" unicode="&#xe62f;" 
d="M925 223q34 76 34 160q0 85 -35 161q-30 67 -82 118q3 14 3 30q0 57 -40.5 98t-97.5 41q-71 0 -112 -57q-13 1 -27 1q-68 0 -131 -23q-61 -21 -112 -62q-51 -40 -86 -94q-30 -47 -47 -101q-53 -5 -90 -44.5t-37 -94.5q0 -57 40.5 -98t97.5 -41q6 0 10 1q45 -97 133 -157
q100 -69 222 -69q13 0 28 1q41 -55 111 -55q57 0 97.5 40.5t40.5 98.5q0 14 -2 28q52 51 82 118zM706.5 775q34.5 0 58.5 -24.5t24 -59t-24 -58.5t-58.5 -24t-58.5 24t-24 58.5t24 59t58.5 24.5zM120 356q0 34 24.5 58.5t59 24.5t58.5 -24.5t24 -58.5t-24 -58.5t-58.5 -24.5
t-59 24.5t-24.5 58.5zM706.5 -6q-34.5 0 -58.5 24t-24 58.5t24 59t58.5 24.5t58.5 -24.5t24.5 -59t-24 -58.5t-59 -24zM707 216q-58 0 -98.5 -41t-40.5 -98q0 -15 3 -29h-3q-96 0 -177 50t-123 135q34 18 54 51t20 72q0 45 -26 81t-67 50q33 104 121 168t198 64h2
q-2 -13 -2 -27q0 -58 40.5 -98.5t98.5 -40.5q68 0 110 54q86 -95 86 -224q0 -128 -85 -223q-42 55 -111 56z" />
    <glyph glyph-name="fuwudian" unicode="&#xe634;" 
d="M512.5 792q63.5 0 121.5 -25q56 -24 99.5 -67t66.5 -99q25 -59 25 -122q0 -124 -84 -214h-1v-1l-229 -266l-228 267v1h-1q-83 90 -83 213q0 63 25 122q24 56 67 99t99 67q59 25 122.5 25zM512 832q-96 0 -177 -47.5t-128.5 -128.5t-47.5 -177q0 -138 94 -240l231 -271
q11 -13 27 -13q17 0 27 13l232 270q95 102 95 241q0 96 -47 177t-128.5 128.5t-177.5 47.5zM512 631q63 0 107.5 -44.5t44.5 -107.5t-44.5 -107.5t-107.5 -44.5t-107.5 44.5t-44.5 107.5t44.5 107.5t107.5 44.5zM512.5 671q-79.5 0 -136 -56.5t-56.5 -136t56.5 -135.5
t136 -56t135.5 56t56 135.5t-56 136t-135.5 56.5z" />
    <glyph glyph-name="guanlianxiaoshousvg" unicode="&#xe62b;" 
d="M900 26h-477q-25 0 -42.5 17.5t-17.5 42.5v358q0 24 17.5 41.5t42.5 17.5h89q12 0 21 -8.5t9 -21t-9 -21t-21 -8.5h-89v-358h477v358h-149q-13 0 -21.5 8.5t-8.5 21t8.5 21t21.5 8.5h149q24 0 41.5 -17.5t17.5 -41.5v-358q0 -25 -17.5 -42.5t-41.5 -17.5zM601 265h-89
q-12 0 -21 8.5t-9 21t9 21t21 8.5h89v358h-477v-358h149q13 0 21.5 -8.5t8.5 -21t-8.5 -21t-21.5 -8.5h-149q-24 0 -41.5 17.5t-17.5 41.5v358q0 25 17.5 42.5t41.5 17.5h477q25 0 42.5 -17.5t17.5 -42.5v-358q0 -24 -17.5 -41.5t-42.5 -17.5z" />
    <glyph glyph-name="xiaoshoukaidan" unicode="&#xe642;" 
d="M768 160h-96v32h42l-42 42l23 23l65 -65h48l65 65l23 -23l-43 -42h43v-32h-96v-64h96v-32h-96v-64h-32v64h-96v32h96v64zM548 25l-36 -17l-98 49q-14 7 -30 7l-17 -1l-13 -6l-98 -49l-98 49q-14 7 -30 7l-17 -1l-13 -6l-34 -17v728h704v-352q17 2 32 2t32 -2v352
q0 26 -18.5 45t-45.5 19h-704q-26 0 -45 -19t-19 -45v-822v0q0 -6 6 -6q2 0 3 1l118 58q0 1 1 1v0q1 0 1 -1l113 -56q6 -3 14 -3t14 3l113 56q0 1 1 1v0q1 0 1 -1l113 -56q6 -3 14 -3t14 3l59 29q-22 25 -37 53v0zM784 -96q-99 0 -169.5 70.5t-70.5 169.5t70.5 169.5
t169.5 70.5t169.5 -70.5t70.5 -169.5t-70.5 -169.5t-169.5 -70.5zM784 320q-73 0 -124.5 -51.5t-51.5 -124.5t51.5 -124.5t124.5 -51.5t124.5 51.5t51.5 124.5t-51.5 124.5t-124.5 51.5zM160 576h512v32h-512v-32zM608 416h-448v32h448v-32zM448 256h-287l-1 32h287z" />
    <glyph glyph-name="huiyuan2" unicode="&#xe635;" horiz-adv-x="1058" 
d="M819 554.5q0 127.5 -90 217.5t-217 90t-217 -90t-90 -217.5t90 -217.5t217 -90t217 90t90 217.5zM273 555q0 99 70 169t169 70t169 -70t70 -169t-70 -169t-169 -70t-169 70t-70 169zM529 316q-116 0 -214 -57t-155.5 -155.5t-57.5 -214.5h69q0 97 48 180t130.5 130.5
t179.5 47.5t180 -47.5t130.5 -130.5t47.5 -180h69q0 116 -57 214.5t-155.5 155.5t-214.5 57z" />
    <glyph glyph-name="huodan" unicode="&#xe607;" 
d="M734 896h-444q-14 0 -23 -14t-9 -33v-48q0 -6 1 -12q4 -36 26 -60t52 -24h350q30 0 52.5 24t25.5 60q1 7 1 12v48q0 19 -9 33t-23 14zM703 801q0 -14 -9.5 -23t-22.5 -9h-318q-13 0 -22.5 9t-9.5 23v7v7t0.5 5.5t1.5 5t2.5 3.5t4 2.5t6.5 0.5h352q4 0 6.5 -0.5t4.5 -2.5
t2.5 -3.5t1 -5t0.5 -5.5v-7v-7zM880 864h-82v-1.5v-2.5v-59h64q13 0 22 -9.5t9 -22.5v-795q0 -13 -9 -22.5t-22 -9.5h-477l63 -63h432q27 0 52 19.5t25 44.5v858q0 25 -25 44t-52 19zM131 769q0 13 9 22.5t22 9.5h64v59v2.5v1.5h-97q-26 0 -44 -18.5t-18 -44.5v-541l64 -63
v572zM131 197h190v0q27 0 45.5 -18.5t18.5 -45.5v-191l63 -63v254q0 53 -37 90t-90 37h-254zM67 322v-89l359 -361l84 7z" />
    <glyph glyph-name="xiaoshou" unicode="&#xe60b;" 
d="M997 408l-460 461h-1l-0.5 0.5l-0.5 0.5v1q-10 9 -23 9t-22 -9l-463 -463q-9 -9 -9 -22t9.5 -22.5t22.5 -9.5t22 9l440 440l440 -440q9 -9 22 -9t22.5 9.5t9.5 22.5t-9 22zM709.5 501.5q-9.5 9.5 -22.5 9.5t-22 -9l-150 -150h-6l-150 150q-9 9 -22 9t-22.5 -9.5
t-9.5 -22.5t9 -22l105 -105h-78q-13 0 -22.5 -9.5t-9.5 -22.5t9.5 -22.5t22.5 -9.5h139v-64h-140q-13 0 -22 -9.5t-9 -22.5t9 -22.5t22 -9.5h140v-128q0 -13 9.5 -22.5t22.5 -9.5t22.5 9.5t9.5 22.5v128h137q13 0 22 9.5t9 22.5t-9 22.5t-22 9.5h-137v64h143q13 0 22.5 9.5
t9.5 22.5t-9.5 22.5t-22.5 9.5h-82l105 105q9 9 9 22t-9.5 22.5zM930 -64h-34v419q0 12 -8.5 20.5t-20.5 8.5h-6v0q-12 0 -20.5 -8.5t-8.5 -20.5v-419h-640v419q0 12 -8.5 20.5t-20.5 8.5h-6q-12 0 -20.5 -8.5t-8.5 -20.5v-419h-34q-13 0 -21.5 -8.5t-8.5 -21.5v-4
q0 -13 8.5 -21.5t21.5 -8.5h836q13 0 21.5 8.5t8.5 21.5v4q0 13 -8.5 21.5t-21.5 8.5z" />
    <glyph glyph-name="dingdan" unicode="&#xe60d;" 
d="M736 896h-448q-13 0 -22.5 -14t-9.5 -34v-47q0 -6 1 -13q4 -36 26.5 -60t52.5 -24h352q30 0 52.5 24t26.5 60q1 7 1 13v47q0 20 -9.5 34t-22.5 14zM704 800q0 -13 -9.5 -22.5t-22.5 -9.5h-320q-13 0 -22.5 9.5t-9.5 22.5v7v7t0.5 6t1 5.5t2.5 3.5t4.5 2.5t6.5 0.5h355
q3 0 6 -0.5t4.5 -2.5t2.5 -4t1 -5.5v-5.5v-6.5v-7.5zM898 864h-98v-1.5v-2.5v-60h64q13 0 22.5 -9.5t9.5 -22.5v-800q0 -13 -9.5 -22.5t-22.5 -9.5h-704q-13 0 -22.5 9.5t-9.5 22.5v800q0 13 9.5 22.5t22.5 9.5h64v60v2.5v1.5h-98q-26 0 -44 -18.5t-18 -45.5v-863
q0 -26 25 -45.5t53 -19.5h740q28 0 53 19.5t25 45.5v863q0 27 -18 45.5t-44 18.5zM768 526.5q0 -13.5 -9.5 -22.5t-22.5 -9h-448q-13 0 -22.5 9t-9.5 22.5t9.5 23t22.5 9.5h448q13 0 22.5 -9.5t9.5 -23zM768 368q0 -13 -9.5 -22.5t-22.5 -9.5h-448q-13 0 -22.5 9.5
t-9.5 22.5t9.5 22.5t22.5 9.5h448q13 0 22.5 -9.5t9.5 -22.5zM768 210.5q0 -13.5 -9.5 -22.5t-22.5 -9h-448q-13 0 -22.5 9t-9.5 22.5t9.5 23t22.5 9.5h448q13 0 22.5 -9.5t9.5 -23z" />
    <glyph glyph-name="shengchanguanli" unicode="&#xe63a;" 
d="M939 -118h-854q-32 0 -54 22t-22 53v854q0 31 22 53t54 22h854q31 0 53 -22t22 -53v-854q0 -31 -22 -53t-53 -22zM85 838q-12 0 -20 -8t-8 -19v-854q0 -11 8 -19t20 -8h854q11 0 19 8t8 19v854q0 11 -8 19t-19 8h-854zM428 666q-8 32 -34.5 53t-60.5 21t-60.5 -21
t-34.5 -53h-39v-48h39q8 -32 34.5 -53t60.5 -21t60.5 21t34.5 53h399v48h-399zM333 592q-20 1 -34 15.5t-14 34.5t14 34.5t34 15.5q20 -1 34 -15.5t14 -34.5t-14 -34.5t-34 -15.5zM647 492q-32 0 -59.5 -22t-35.5 -52h-353v-48h353q8 -33 34.5 -53.5t60.5 -20.5t60.5 20.5
t34.5 53.5h85v48h-85q-8 30 -35.5 52t-59.5 22zM647 344v0q-20 0 -35 14t-15 35v1v0q0 21 15 35.5t35 14.5q21 0 35.5 -15t14.5 -35.5t-14.5 -35t-35.5 -14.5v0zM745 394v-7v6.5v7.5v-7zM294 219q-41 0 -69.5 -28.5t-28.5 -69t28.5 -69.5t69.5 -29q31 0 59 22t36 52h439v48
h-439q-8 31 -36 52.5t-59 21.5zM294 71q-20 1 -34 16t-14 34.5t14 34.5t34 15t34 -15t14 -34.5t-14 -34.5t-34 -16z" />
    <glyph glyph-name="xiaoshouxinxi" unicode="&#xe747;" 
d="M870 742h-716q-43 0 -73 -30t-30 -72v-512q0 -42 30 -72t73 -30h716q43 0 73 30t30 72v512q0 42 -30 72t-73 30zM922 128q0 -21 -15 -36t-37 -15h-716q-22 0 -37 15t-15 36v512q0 21 15 36t37 15h716q22 0 37 -15t15 -36v-512zM614 210q-12 52 -43.5 87t-79.5 51q1 0 3 2
l3 3q41 49 41 104t-36 94q-33 36 -82.5 36t-82.5 -36q-35 -39 -35 -94t41 -104l2.5 -2.5t1.5 -2.5q-53 -14 -91.5 -48t-48.5 -85v0q0 -1 -1 -3t-1 -3h1q0 -1 -0.5 -2t-0.5 -2q0 -11 7.5 -18.5t17.5 -7.5t17 6t8 16l1 -1q8 52 56.5 79.5t107.5 27.5q17 0 35 -3.5t41.5 -13.5
t41.5 -33.5t26 -57.5v0q2 -8 9 -14t16 -6q10 0 17.5 7.5t7.5 18.5l-1 5h1zM375 516q19 21 45 21t45 -21q22 -24 22 -59q0 -37 -29 -71q-23 -27 -38 -28q-15 1 -38 28q-29 34 -29 71q0 35 22 59zM794 538h-154q-11 0 -18.5 -7.5t-7.5 -18.5t7.5 -18.5t18.5 -7.5h154
q10 0 17.5 7.5t7.5 18.5t-7.5 18.5t-17.5 7.5zM794 435h-154q-11 0 -18.5 -7.5t-7.5 -18t7.5 -18t18.5 -7.5h154q10 0 17.5 7.5t7.5 18t-7.5 18t-17.5 7.5zM794 333h-103q-10 0 -17.5 -7.5t-7.5 -18t7.5 -18t17.5 -7.5h103q10 0 17.5 7.5t7.5 18t-7.5 18t-17.5 7.5z" />
    <glyph glyph-name="quexianguanli" unicode="&#xe636;" 
d="M711 175q-3 -5 -3 -12v-168q0 -6 -2 -7.5t-11 -1.5h-555q-24 0 -24 9v121q33 -13 69 -13q69 0 120 48t51 114q0 68 -50 115.5t-120 47.5q-38 0 -72 -15l2 123q0 8 8 17t16 9h174v0q12 0 20 8t8 19t-8 19q-28 28 -28 67v2q0 44 32.5 74.5t79 30.5t79 -31t32.5 -76
q0 -38 -28 -67q-8 -8 -8 -19t9 -19q8 -8 19 -8h174q5 0 9 -8t4 -18v-171q0 -12 8 -19.5t20 -7.5q6 0 12 2l26 13l1 1q38 18 59 18q46 0 78.5 -31.5t32.5 -76.5t-32.5 -76.5t-78.5 -31.5q-21 0 -59 18q-142 74 -308 96l269 -80v0v0q-17 0 -25 -15v0zM834 426q-33 0 -71 -18
v128q0 32 -18.5 56.5t-49.5 24.5h-123q12 27 12 58v1q0 66 -49 113t-118 47q-70 0 -118 -46t-48 -113q0 -32 12 -61h-123q-30 0 -55 -25t-25 -55v-170q0 -11 8.5 -19t19.5 -8t19 8q29 27 79 27q46 0 80 -32.5t34 -76.5t-34 -76t-81 -32q-49 0 -78 27q-8 8 -19 8
q-12 0 -20 -9q-8 -7 -8 -18v0v-170q0 -28 22.5 -45.5t57.5 -17.5h556q32 0 50 17q17 17 17 46v125q38 -18 71 -18q69 0 118 47q48 47 48 115v0q0 67 -48.5 114.5t-117.5 47.5v0z" />
    <glyph glyph-name="quexian" unicode="&#xe609;" 
d="M878 347q24 0 43.5 5t34 12t25.5 20t18.5 23.5t12.5 29.5t7 31t3.5 34t1.5 32v33q0 15 -11 24.5t-26.5 11t-31.5 -2t-27 -13t-11 -21.5q0 -26 -3 -48.5t-12.5 -41.5t-23.5 -19v8q0 78 -129 131q-1 94 -67 160.5t-160 66.5q-91 0 -156.5 -63t-70.5 -154
q-67 -21 -106 -56.5t-41 -84.5v-8q-38 0 -38 109q0 17 -17 27t-37.5 10t-38 -9.5t-17.5 -26.5q0 -18 0.5 -23.5t2 -27t4 -32.5t7.5 -32t12 -32.5t18.5 -27t25.5 -24t34 -14.5t44 -6v-110q-56 -13 -101.5 -75.5t-46.5 -128.5q0 -19 16 -33.5t35.5 -18.5t37 5t21.5 31
q0 98 73 111q38 -105 123.5 -162.5t201.5 -57.5q118 0 209 58t127 162q41 -3 57 -31.5t16 -79.5q8 -26 25.5 -40t35 -13t31.5 19t15 50q0 71 -41.5 132.5t-104.5 71.5v109zM769 272q0 -105 -75 -179.5t-180.5 -74.5t-181 74.5t-75.5 179.5v169q0 36 75.5 62.5t180.5 26.5
q110 0 187 -27q69 -27 69 -61v-170zM513 713q42 0 73 -21t37 -52q-50 9 -120 9q-57 0 -99 -6q7 30 38 50t71 20z" />
    <glyph glyph-name="gongyingshangmingxi" unicode="&#xe628;" 
d="M500 290q33 0 40.5 -6.5t12.5 -43.5q2 -12 5.5 -34.5t6 -41t3.5 -35.5q2 -13 -8 -25q-17 -20 -25 -29t-19 -16t-16.5 -7t-16.5 6t-19.5 14.5t-27.5 26.5q-15 16 -12 37q2 21 9 61.5t10 59.5q3 21 11 27.5t25 6.5q3 0 10 -0.5t11 -0.5zM464 139q-1 -17 7.5 -26.5
t23.5 -9.5q16 -1 26.5 9t8.5 27q-2 18 -8 54t-8 47q-2 17 -19 17q-15 0 -17 -18q-2 -10 -7 -46t-7 -54zM77 -19q-3 -30 24 -38q22 -6 51 -6h352v45h-185q-156 0 -174 -1q-14 0 -19 6.5t-3 21.5q7 51 25.5 99t50 93.5t82 79.5t113.5 49q42 9 100 9q96 0 166.5 55t89.5 145
q17 78 -21 153t-115 113q-73 36 -149.5 23t-130.5 -71q-45 -50 -59 -118.5t8 -135.5t73 -111q13 -11 13 -14.5t-12 -8.5q-229 -88 -275 -330q-2 -13 -5 -58zM321 582q-1 84 51.5 142t130.5 59q80 0 139.5 -58t60.5 -137q0 -83 -57.5 -141t-140.5 -58q-78 -1 -131 54.5
t-53 138.5zM786 45q-127 0 -145 1q-15 0 -22.5 -4t-8.5 -18q0 -12 7.5 -17t24.5 -5h143.5h143.5q15 0 22.5 4t7.5 17q1 13 -6 17.5t-25 4.5h-142zM780 181h-120q-15 1 -22.5 -3.5t-7.5 -18t7.5 -17.5t22.5 -4q115 1 239 0q16 0 23 4.5t7 17.5t-7.5 17.5t-22.5 3.5h-119z
M769 308h-110q-15 0 -22.5 -5.5t-6.5 -17.5t8 -16.5t21 -4.5q85 1 217 0q14 0 21 4.5t7 17.5t-7 17.5t-21 4.5h-107z" />
    <glyph glyph-name="gongyingshangzhushuju" unicode="&#xe629;" 
d="M500 290q33 0 40.5 -6.5t12.5 -43.5q2 -12 5.5 -34.5t6 -41t3.5 -35.5q2 -13 -8 -25q-17 -20 -25 -29t-19 -16t-16.5 -7t-16.5 6t-19.5 14.5t-27.5 26.5q-15 16 -12 37q2 21 9 61.5t10 59.5q3 21 11 27.5t25 6.5q3 0 10 -0.5t11 -0.5zM464 139q-1 -17 7.5 -26.5
t23.5 -9.5q16 -1 26.5 9t8.5 27q-2 18 -8 54t-8 47q-2 17 -19 17q-15 0 -17 -18q-2 -10 -7 -46t-7 -54zM77 -19q-3 -30 24 -38q22 -6 51 -6h352v45h-185q-156 0 -174 -1q-14 0 -19 6.5t-3 21.5q7 51 25.5 99t50 93.5t82 79.5t113.5 49q42 9 100 9q96 0 166.5 55t89.5 145
q17 78 -21 153t-115 113q-73 36 -149.5 23t-130.5 -71q-45 -50 -59 -118.5t8 -135.5t73 -111q13 -11 13 -14.5t-12 -8.5q-229 -88 -275 -330q-2 -13 -5 -58zM321 582q-1 84 51.5 142t130.5 59q80 0 139.5 -58t60.5 -137q0 -83 -57.5 -141t-140.5 -58q-78 -1 -131 54.5
t-53 138.5zM895 43l-105 -68q-14 -9 -28 0l-105 69q-3 2 -5 5h-48q2 -5 8 -9l145 -98q8 -6 19 -6t19 6l145 97q6 4 8 10h-48q-1 -3 -5 -6zM895 112l-105 -68q-14 -9 -28 0l-105 68q-3 3 -5 6h-48q2 -6 8 -10l145 -98q8 -5 19 -5t19 5l145 98q6 4 8 10h-48q-1 -3 -5 -6z
M612 177l145 -98q8 -5 19 -5t19 5l145 98q8 5 8 12.5t-8 12.5l-145 98q-8 6 -19.5 6t-19.5 -6l-144 -97q-8 -6 -8 -13.5t8 -12.5zM657 199l105 68q14 9 28 0l105 -68q6 -4 6 -9t-6 -9l-105 -68q-14 -10 -28 0l-105 68q-6 4 -6 9t6 9v0z" />
    <glyph glyph-name="liucheng-yanhuo" unicode="&#xe626;" 
d="M187 436h67q3 -16 9 -35h-36v-16h42q9 -22 20 -41q25 -43 63 -77h-165v169v0v0zM138 233h280v-249h-280v249zM195 179v-33h166v33h-166zM806 643q50 -89 34 -187t-90 -164l128 -221q12 -21 5.5 -44t-27.5 -35q-20 -12 -43.5 -6t-35.5 27l-127 221q-94 -31 -188 4
t-144 123q-29 50 -36 106.5t7 108t48 97t83.5 74t106 35t108 -7t97 -47.5t74.5 -84zM763 618q-48 83 -141 108t-176 -23t-108 -141t23 -176.5t141 -108t176 23.5t108 141t-23 176z" />
    <glyph glyph-name="shangchao" unicode="&#xe684;" 
d="M344 309q-25 0 -42.5 -17.5t-17.5 -42.5t17.5 -43t42.5 -18t43 18t18 43t-18 42.5t-43 17.5zM505 309q-25 0 -42.5 -17.5t-17.5 -42.5t17.5 -43t42.5 -18t43 18t18 43t-18 42.5t-43 17.5zM938 678l-66 112h-717l-67 -112q-34 -58 -19 -123t71 -102v-362q0 -42 31 -72.5
t75 -30.5h535q44 0 75 30.5t31 72.5v362q52 35 69 95q19 69 -18 130zM827 91q0 -18 -13.5 -31.5t-32.5 -13.5h-535q-19 0 -32.5 13.5t-13.5 31.5v336q48 -11 95.5 4.5t79.5 53.5q24 -32 61 -50t79 -18q41 0 77.5 17.5t60.5 49.5q35 -42 89 -56q43 -11 85 -1v-336z
M898.5 563.5q-12.5 -44.5 -53.5 -68t-87 -11.5t-70 53l-43 72l-22 -59q-12 -34 -42 -54.5t-66 -20.5q-38 0 -68 21.5t-41 55.5l-21 62l-46 -77q-24 -41 -70 -53t-87 11.5t-53.5 68t11.5 85.5l49 83h648l50 -83q24 -41 11.5 -85.5zM666 309q-25 0 -42.5 -17.5t-17.5 -42.5
t17.5 -43t42.5 -18t43 18t18 43t-18 42.5t-43 17.5z" />
    <glyph glyph-name="_mucaiyuanliao" unicode="&#xe885;" 
d="M911 -41h-386q-12 0 -20.5 8t-8.5 20v0q0 12 8.5 20.5t20.5 8.5v0h386v0q9 0 16.5 8t7.5 20v0q0 9 -5 17v0l-1 2l-377 710q-8 13 -21 13v0q-13 0 -20 -14v0l-186 -334q-6 -11 -17.5 -14t-21.5 3v0q-10 5 -13 16.5t2 21.5v0l186 334q11 20 29.5 32t40.5 12v0
q23 0 41.5 -12t29.5 -32v0l376 -708q14 -21 14 -47v0q0 -35 -23.5 -60t-57.5 -25v0v0v0zM92 -41q-12 0 -20 8v0q-9 9 -9 20v0v450q0 12 9 20v0q8 9 20 9v0h515q11 0 20 -9v0q8 -8 8 -20v0v-450q0 -11 -8 -20v0q-9 -8 -20 -8v0h-515v0zM607 -13v29v-29v0zM120 16h458v393
h-458v-393v0zM90 265q-7 0 -12 5t-5 12v0q0 7 5 12t12 5v0h498q7 0 12 -5t5 -12v0q0 -7 -5 -12t-12 -5v0h-498v0zM90 118q-7 0 -12 5t-5 12v0q0 7 5 12t12 5v0h498q7 0 12 -5t5 -12v0q0 -7 -5 -12t-12 -5v0h-498v0z" />
    <glyph glyph-name="anquanshengchan" unicode="&#xe68c;" 
d="M512 -128q-58 0 -132.5 38t-143.5 104q-76 71 -117.5 151.5t-41.5 154.5v408q0 11 7.5 19t18.5 8l40 1q8 0 26.5 1t64.5 10.5t85 25.5t77 35.5t55.5 30.5t21.5 15l24 17q7 5 15 5h1q8 0 15 -5l24 -18q72 -47 153 -80q40 -16 85.5 -25.5t64 -11t26.5 -1.5h40q11 0 18.5 -8
t7.5 -19v-408q0 -74 -41.5 -154.5t-117.5 -152.5q-68 -65 -142 -103t-134 -38zM131 320q0 -64 37 -134t105 -134q60 -57 126 -92t113.5 -35t113.5 35t126 92q67 64 104.5 134t37.5 134v382h-15q-8 0 -29 1.5t-71.5 12t-93.5 27.5q-98 40 -164 87l-9 7l-8 -7l-21 -14
t-57 -32.5t-86 -40.5q-87 -35 -191 -41h-4h-14v-382zM463 242v0q-12 0 -21 8l-122 122q-9 8 -9 21v0v1q0 12 8.5 20.5t21.5 8.5v0q13 0 22 -8l100 -100l223 221q9 8 21 8h1q12 0 21 -8.5t9 -21.5v0v0q0 -13 -9 -21l-244 -242q-9 -9 -22 -9z" />
    <glyph glyph-name="xiaoshou2" unicode="&#xe676;" 
d="M329 255h-105q-19 0 -33 -13.5t-14 -32.5v-191q0 -19 14 -32.5t33 -13.5h105q19 0 32.5 13.5t13.5 32.5v190q0 20 -13.5 33.5t-32.5 13.5zM346 18q0 -7 -5 -12t-12 -5h-105q-7 0 -12 5t-5 12v190q0 8 5 13t12 5h105q7 0 12 -5t5 -13v-190zM569 394h-105q-19 0 -33 -13.5
t-14 -32.5v-329q0 -19 14 -33t33 -14h105q20 0 33.5 14t13.5 33v329q0 19 -13.5 32.5t-33.5 13.5zM586 18q0 -7 -5 -12t-12 -5h-105q-7 0 -12 5t-5 12v329q0 7 5 12.5t12 5.5h105q7 0 12 -5.5t5 -12.5v-329zM834 510h-106q-19 0 -33 -14t-14 -33v-445q0 -19 14 -33t33 -14
h106q19 0 32.5 14t13.5 33v445q1 19 -13 33t-33 14zM850 19q0 -8 -4.5 -13t-11.5 -5h-105q-7 0 -12 5t-5 13v444q0 7 5 12.5t12 5.5h105q7 0 11.5 -5t4.5 -13v-444zM820 709l45 -44v131h-135l45 -44l-248 -218l-135 131l-248 -219l45 -44l203 176l135 -132z" />
    <glyph glyph-name="ccgl-tuihuoyugao-7" unicode="&#xe623;" horiz-adv-x="1039" 
d="M612 359h-108v52h108q12 0 20.5 8.5t8.5 20.5t-8.5 20.5t-20.5 8.5h-94l115 115q8 8 8 20.5t-8.5 21t-20.5 8.5t-21 -9l-116 -117l-117 117q-8 9 -20 9t-20.5 -8.5t-8.5 -21t8 -20.5l115 -115h-94q-12 0 -20.5 -8.5t-8.5 -20.5t8.5 -20.5t20.5 -8.5h108v-52h-108
q-12 0 -20.5 -8.5t-8.5 -20.5t8.5 -20.5t20.5 -8.5h108v-135q0 -12 8.5 -20.5t20.5 -8.5t20.5 8.5t8.5 20.5v135h108q12 0 20.5 8.5t8.5 20.5t-8.5 20.5t-20.5 8.5zM960 203.5q-3 11.5 -13.5 17.5t-21.5 3l-80 -22q43 87 43 183q0 112 -55.5 207t-150.5 150.5t-207 55.5
t-207 -55.5t-150.5 -150.5t-55.5 -207t55.5 -207t150.5 -150.5t207 -55.5q109 0 203 54h1l0.5 0.5l0.5 0.5v0q13 8 13 24q0 12 -8.5 20.5t-20.5 8.5q-7 0 -13 -3v0q-82 -47 -176 -47q-96 0 -178 47.5t-129.5 129.5t-47.5 178t47.5 178t129.5 129.5t178 47.5t178 -47.5
t129.5 -129.5t47.5 -178q0 -83 -37 -157l-23 85q-3 11 -13.5 17t-22 3t-17.5 -13.5t-3 -22.5l40 -149q4 -12 14 -18q7 -4 14 -4q4 0 8 1l150 41q11 3 17 13.5t3 22z" />
    <glyph glyph-name="shengchanguanli1" unicode="&#xe60f;" 
d="M664 384q0 63 -44.5 107.5t-107.5 44.5v0zM512 280q-42 2 -71 32t-29 72t29 72t71 32q43 0 73.5 -30.5t30.5 -73.5t-30.5 -73.5t-73.5 -30.5zM796.5 189q-36.5 0 -63 -26.5t-26.5 -63.5q2 -35 28 -60t62 -25t61.5 24.5t27.5 60.5q0 37 -26.5 63.5t-63 26.5zM796 58v0
q-17 0 -29 12t-12 29.5t12 29.5t29 12v0q18 0 30 -12t12 -29.5t-12 -29.5t-30 -12zM992 149h-22q-10 38 -35 68l35 -15q7 8 7 17.5t-7 16.5l-36 37q-8 7 -17.5 7t-16.5 -7l-16 -15q-32 18 -69 21l31 16q0 10 -7 17t-17 7h-51q-10 0 -17 -7t-7 -17v-22q-38 -10 -67 -35l14 35
q-7 7 -17 7t-17 -7l-37 -37q-7 -7 -7 -17t7 -17l15 -15q-18 -32 -21 -69l-16 31q-10 0 -17 -7t-7 -17v-51q0 -10 7 -17t17 -7h22q5 -20 15 -38l-15 -16q-7 -7 -7 -17t7 -17l37 -36q7 -7 17 -7t17 7l15 15q18 -10 38 -16v-21q0 -10 7 -17t17 -7h51q10 0 17 7t7 17v22
q20 5 38 15l16 -15q7 -7 17 -7t17 7l36 36q7 8 7 17.5t-7 16.5l-15 16q10 18 16 38h21q10 0 17 7t7 17v51q0 10 -7 17t-17 7zM968 98h-17v0q-9 0 -15.5 -6t-7.5 -14q-7 -38 -31 -66q3 -3 3 -4q0 -10 7 -17l12 -12l-2 -2l-12 12q-7 7 -17 7q-8 0 -14 -5q-30 -22 -67 -24
l-2 -3t-4.5 -8.5t-2.5 -10.5v-17h-3v17q0 9 -6 15.5t-14 7.5q-38 7 -66 31q4 -3 3 -3h-7q-10 0 -17 -7l-12 -12l-2 2l12 12q7 7 7 17q0 8 -5 14q-21 30 -24 67l-3 2t-8.5 4.5t-10.5 2.5h-17v3h17q9 0 15.5 6t8.5 14q5 31 22 56q5 6 5 14q0 10 -7 17l-12 11l2 3l12 -12
q7 -7 17 -7q8 0 14 5q25 17 56 22q8 2 14 8.5t6 15.5v17h3v-17q0 -9 6 -15.5t14 -8.5q31 -5 56 -22q16 -12 31 2l11 12l3 -3l-12 -11q-7 -7 -7 -17q0 -8 5 -14q18 -25 23 -56q1 -8 7.5 -14t15.5 -6v0h17v-3v0zM952 888h-880q-27 0 -45.5 -16t-18.5 -38v-900q0 -22 18.5 -38
t45.5 -16h338q10 0 17 7t7 17t-7 17t-17 7h-338q-14 0 -16 6v239h144v-47q0 -22 18.5 -38t45.5 -16h177q10 0 17 7t7 17t-7 17t-17 7h-177q-14 0 -16 6v71v373v1v0v71q2 6 16 6h496q13 0 16 -6v-186q0 -10 7 -17t17 -7t17 7t7 17v186q0 22 -18.5 38t-45.5 16h-496
q-27 0 -45.5 -16t-18.5 -38v-47h-144v239q2 6 16 6h880q13 0 16 -6v-346q0 -10 7 -17t17 -7t17 7t7 17v346q0 22 -18.5 38t-45.5 16zM200 547v-326h-144v326h144z" />
    <glyph glyph-name="saoma2" unicode="&#xe61d;" 
d="M911 86q0 -42 -29.5 -71.5t-71.5 -29.5h-595q-42 0 -72 29.5t-30 71.5v596q0 41 30 71t72 30h595q42 0 71.5 -30t29.5 -71v-596zM703 193v382h42v-382h-42zM597 236h42v-43h-42v43zM597 575h42v-297h-42v297zM491 236h42v-43h-42v43zM491 575h42v-297h-42v297zM385 236
h42v-43h-42v43zM385 575h42v-297h-42v297zM279 575h42v-382h-42v382zM814 -15h-177q-11 0 -18 7.5t-7 18t7 17.5t18 7h177q20 0 33.5 13.5t13.5 33.5v195q0 11 7 18t17.5 7t18 -7t7.5 -18v-195q0 -40 -28.5 -68.5t-68.5 -28.5zM423 -15h-213q-40 0 -68.5 28.5t-28.5 68.5
v195q0 11 7.5 18t18 7t17.5 -7t7 -18v-195q0 -20 13.5 -33.5t33.5 -13.5h213q10 0 17.5 -7t7.5 -17.5t-7.5 -18t-17.5 -7.5zM885.5 466q-10.5 0 -17.5 7t-7 18v195q0 20 -13.5 33.5t-33.5 13.5h-177q-11 0 -18 7t-7 17.5t7 18t18 7.5h177q40 0 68.5 -28.5t28.5 -68.5v-195
q0 -11 -7.5 -18t-18 -7zM138.5 466q-10.5 0 -18 7t-7.5 18v195q0 40 28.5 68.5t68.5 28.5h213q10 0 17.5 -7.5t7.5 -18t-7.5 -17.5t-17.5 -7h-213q-20 0 -33.5 -13.5t-13.5 -33.5v-195q0 -11 -7 -18t-17.5 -7z" />
    <glyph glyph-name="ruanjiananzhuang" unicode="&#xe8f8;" 
d="M956 592v0q1 1 2 3v0.5v0.5l0.5 1l0.5 1v2v1v4v1q0 2 -1 3v0.5v0.5q-1 2 -1 3v0q-1 1 -1 2l-0.5 1t-1 1.5l-1.5 1.5l-2 1l-2 2l-0.5 0.5l-0.5 0.5h-1v0l-272 153v0l-1 0.5l-1 0.5q-1 0 -2 1h-2t-3 1h-1h-3l-0.5 -0.5l-0.5 -0.5h-3t-2 -1q-2 -1 -3 -1v0l-142 -80l-142 80
q-1 0 -2 0.5l-1 0.5q-1 0 -1 1h-3t-1 0.5v0.5h-3h-1h-1q-2 -1 -3 -1h-0.5h-0.5l-3 -1q-1 -1 -2 -1v0v0l-272 -153l-1 -1q-2 -1 -3 -2l-1 -1q-1 0 -1.5 -1l-0.5 -1l-2 -2v-1v0v-1q-1 0 -2 -2v-1.5v-0.5l-1 -2v-1v-1v-2v-1.5v-1.5l0.5 -1.5t0.5 -2.5t1 -1q0 -2 1 -3v0v-1
q1 -2 3 -4l1 -1q1 -1 3 -2q1 0 1 -0.5t1 -0.5v0l122 -65l-106 -51l-0.5 -0.5l-0.5 -0.5q-2 -1 -2.5 -1t-1.5 -1.5t-1.5 -2l-1 -1l-0.5 -0.5l-1 -1v0v-1l-0.5 -0.5l-1 -1t-0.5 -1v-1t-0.5 -1t-0.5 -1v-1.5t-0.5 -1.5t-0.5 -1v-0.5v-2.5v-2.5q1 -1 1 -2v-2q1 -1 1 -2v-0.5
v-0.5h0.5h0.5q2 -3 3 -5v0h1q1 -2 3 -4l138 -91q-1 -3 -1 -5v-136v-0.5v-0.5q0 -2 1 -3v-2t1 -2q0 -1 1 -2l1 -2l1 -2q1 0 1 -1t1 -1l2 -2l0.5 -0.5l0.5 -0.5v0l263 -180h1q1 0 1 -0.5t1 -0.5q2 -1 3 -1q0 -1 1 -1h1q3 -1 5 -1v0v0q2 0 5 1l1 0.5l1 0.5q2 0 3 1q1 0 1.5 0.5
t1 0.5h0.5v1l263 180h0.5t0.5 0.5t1 1t1.5 1l1 1l0.5 0.5l1 1v1l1 2q1 1 1 2q1 1 1 2l0.5 0.5t0.5 1.5v3v0.5v0.5v136q0 2 -1 5l138 91l4 4v0v0q2 2 3 5h1v0.5v0.5q0 1 1 2v1.5t1 0.5v2v3v2v2l-0.5 1l-0.5 1v1t-0.5 1.5t-0.5 1v0.5l-2 2v0.5v0.5l-0.5 0.5l-0.5 0.5q0 1 -1 2
t-2 1.5t-1.5 1t-2.5 1.5l-0.5 0.5l-0.5 0.5l-106 51l122 65v0l2 1q2 1 3 2q0 1 1 1q2 2 3 4v1v0zM664 303l-108 70l219 118l100 -48l-211 -140v0zM358 303l-211 140l100 48l219 -118l-108 -70v0zM358 729l107 -59l-218 -127l-113 60l224 126v0zM511 401l-216 117l216 126
l216 -126zM557 670l107 60l225 -127l-114 -60l-218 127v0zM345 256h1l4 -2q2 0 2 -1h6v-1v1h6q1 1 2 1l4 2h0.5h0.5l117 77v-274l-217 148v99l74 -50v0zM751 207l-217 -148v274l118 -77v0l4 -2q1 0 2 -1h6v-1v1h6q1 1 2 1l4 2h0.5h0.5l74 50v-99v0v0zM751 207z" />
    <glyph glyph-name="shengchandingdan" unicode="&#xe606;" 
d="M323 331h580v-55h-580v55zM323 129h580v-55h-580v55zM924 896h-622q-41 0 -70.5 -30t-29.5 -72v-140h-96q-44 0 -75 -30.5t-31 -72.5v-576q0 -42 31 -72.5t75 -30.5h818q41 0 70.5 30t29.5 72v820q0 42 -29.5 72t-70.5 30zM257 33v761q0 19 13.5 33t31.5 14h622
q18 0 31.5 -14t13.5 -33v-820q0 -19 -13.5 -33t-31.5 -14h-836v0q-14 0 -23.5 9.5t-9.5 23.5v606q0 13 9.5 23t23.5 10h114v-566h55zM902 701h-584v-257h584v257zM369 495v155h482v-155h-482z" />
    <glyph glyph-name="xiaoshouyeji" unicode="&#xe7a7;" 
d="M852 802h-686q-42 0 -72.5 -30t-30.5 -73v-440q0 -42 30.5 -72t72.5 -30h258v-125h-138v0h-2h-1q-11 0 -18.5 -7.5t-7.5 -18t7.5 -18t18.5 -7.5q2 0 3 1v-1h431q11 0 18.5 7.5t7.5 18t-7.5 18t-18.5 7.5h-139v125h274q42 0 72 30t30 72v440q0 43 -30 73t-72 30zM903 290
q0 -42 -20 -62t-62 -20h-624q-43 0 -62.5 20t-19.5 62v379q0 42 19.5 62t62.5 20h624q42 0 62 -20t20 -62v-379zM792 683q-15 6 -27 -5h-1l-224 -299l-207 152l-8 -11l-95 -125q-1 -2 -2 -5q-4 -10 0.5 -19.5t14.5 -13.5q9 -3 17.5 0t13.5 11l70 92l200 -146l7 -6l255 339
l-1 1q1 1 1 2q4 10 0 20t-14 13z" />
    <glyph glyph-name="weixiujilu" unicode="&#xe683;" 
d="M609 435q-41 0 -82 -20q-11 -6 -12.5 -19t7.5 -22l87 -87l-30 -31l-87 87q-8 8 -18 8q-16 0 -23 -16q-26 -49 -17.5 -107t50.5 -100q51 -51 125 -51q35 0 59 10l146 -141l18 -18q8 -7 18 -7t18 7l18 18l36 36l18 18q7 8 7 18t-7 18l-18 18l-146 141q17 47 6 97.5
t-47 88.5q-54 54 -126 54zM727 212q-12 -28 13 -53l146 -141l-36 -36l-146 141q-15 15 -36 15q-10 0 -18 -2q-19 -8 -43 -8q-55 0 -90 38q-48 48 -36 113l59 -59q16 -15 36 -15t36 15l31 31q15 15 15 36.5t-15 35.5l-59 58q7 3 23 3q55 0 89 -38q27 -26 35.5 -61.5
t-4.5 -72.5zM461 461q0 11 -8 18t-18 7h-153q-10 0 -18 -7t-8 -18t8 -18.5t18 -7.5h153q10 0 18 8t8 18zM356 333h-69q-12 0 -20 -7.5t-8 -18.5t8 -18t20 -7h69q12 0 20 7t8 18t-8 18.5t-20 7.5zM356 179h-69q-12 0 -20 -7t-8 -18.5t8 -18.5t20 -7h69q12 0 20 7t8 18.5
t-8 18.5t-20 7zM282 589h460q10 0 18 8t8 17.5t-8 17.5t-18 8h-460q-10 0 -18 -8t-8 -17.5t8 -17.5t18 -8zM896 845h-768q-10 0 -18 -8t-8 -18v-870q0 -11 8 -18.5t18 -7.5h384q12 0 19 7t7 18.5t-7 18.5t-19 7h-358v820h716v-384q0 -12 7 -19t19 -7t19 7t7 19v409
q0 11 -8 18.5t-18 7.5z" />
    <glyph glyph-name="weixiugongdan" unicode="&#xe632;" 
d="M422 584q-41 0 -82 -21q-11 -6 -12.5 -18.5t7.5 -22.5l87 -87l-30 -31l-87 88q-8 7 -18 7q-16 0 -23 -15q-26 -49 -17.5 -107.5t50.5 -100.5q51 -51 125 -51q35 0 59 11l185 -185l18 -18q7 -7 17.5 -7t17.5 7l18 18l36 36l18 18q8 8 8 18t-8 18l-18 18l-184 184
q17 48 6 98.5t-47 88.5q-54 54 -126 54zM540 361q-12 -29 13 -54l184 -184l-36 -36l-184 184q-15 16 -36 16q-10 0 -18 -3q-19 -8 -43 -8q-55 0 -90 39q-48 48 -36 113l59 -59q16 -16 36.5 -16t35.5 16l31 30q15 16 15 37.5t-15 34.5l-59 59q7 2 23 2q55 0 89 -38
q27 -25 36 -61.5t-5 -71.5zM896 742h-128v77q0 10 -8 18t-17.5 8t-17.5 -8t-8 -18v-77h-410v77q0 10 -8 18t-17.5 8t-17.5 -8t-8 -18v-77h-128q-12 0 -19 -7t-7 -18v-768q0 -12 7 -19t19 -7h768q12 0 19 7t7 19v768q0 11 -7 18t-19 7zM870 -26h-716v717h102v-25q0 -10 8 -18
t17.5 -8t17.5 8t8 18v25h410v-25q0 -10 8 -18t17.5 -8t17.5 8t8 18v25h102v-717z" />
    <glyph glyph-name="shengchanzhuangkuang" unicode="&#xe658;" 
d="M568 349q-2 0 -4 1q-6 1 -10 7q-6 11 -17 18q-18 10 -37 4.5t-29 -22.5q-3 -5 -10 -7q-6 -2 -11 1l-87 51q-6 3 -8 9q-1 6 2 12q6 11 6 24q0 20 -14 34t-34 14q-6 0 -11 5q-5 4 -5 11v100q0 7 5 11q4 5 11 5q13 0 24 6q17 11 22 30q6 18 -4 36q-4 6 -2 12t7 10l88 50
q5 3 11.5 1.5t9.5 -7.5q5 -10 17 -17t24 -7q28 0 42 24q3 6 10 7q6 2 11 -1l87 -50q6 -3 8 -10q1 -6 -2 -11q-14 -25 0 -49t42 -24q6 0 11 -4q5 -5 5 -11v-101q0 -6 -5 -11q-4 -5 -11 -5q-13 0 -24 -6q-17 -10 -22 -29q-6 -19 4 -37q4 -6 2 -12t-7 -9l-87 -50q-5 -3 -8 -3z
M513 412q21 0 39 -10q11 -7 20 -17l63 37q-8 22 -1 45q8 32 36 49q12 6 24 9v72q-35 8 -53 38q-18 32 -6 65l-63 37q-10 -11 -27.5 -19t-32.5 -8v0q-34 0 -59 27l-63 -36q8 -23 1 -46q-8 -32 -36 -48q-12 -7 -24 -10v-72q23 -5 40 -22q23 -23 23 -56q0 -13 -4 -25l63 -37
q23 27 60 27zM512.5 483q-32.5 0 -55.5 23t-23 55t23 55t55.5 23t55 -23t22.5 -55t-22.5 -55t-55 -23zM512.5 608q-19.5 0 -33.5 -13.5t-14 -33t14 -33.5t33.5 -14t33 14t13.5 33.5t-13.5 33t-33 13.5zM360 -4h-4q-7 2 -10 8q-5 9 -15 15q-14 8 -31 3.5t-25 -18.5
q-3 -6 -9 -8q-6 -1 -12 2l-78 45q-5 3 -7 9t2 12q5 9 5 20q0 17 -12 29.5t-29 12.5q-6 0 -10.5 4.5t-4.5 10.5v89q0 7 4.5 11.5t10.5 4.5q11 0 20 5q15 9 19.5 25.5t-3.5 30.5q-4 6 -2 12t7 9l78 45q6 3 12 1.5t9 -7.5q5 -8 15 -14t21 -6q23 0 35 21q3 5 10 7q6 2 12 -2
l77 -44q6 -3 7 -10q2 -6 -1 -11q-12 -21 0 -41.5t35 -20.5h1q6 0 11 -5q4 -4 4 -11v-89q0 -6 -4 -11q-5 -4 -11 -4q-12 0 -21 -6q-15 -8 -19.5 -24.5t4.5 -31.5q3 -6 1.5 -12t-7.5 -9l-77 -45q-5 -2 -8 -2zM310 55q20 0 36 -10q10 -5 18 -13l53 31q-7 24 2 47.5t31 36.5
q9 5 21 8v62q-31 7 -47 34.5t-7 57.5l-53 31q-22 -24 -54 -24q-30 0 -53 24l-53 -31q6 -20 0 -40q-7 -29 -33 -44q-10 -6 -21 -8v-62q25 -5 41 -25t16 -46q0 -11 -4 -21l54 -31q22 23 53 23zM310 115q-29 0 -49.5 20.5t-20.5 50t20.5 50.5t50 21t50.5 -21t21 -50t-20.5 -50
t-49.5 -21h-2zM310.5 226q-16.5 0 -28.5 -12t-12 -28q0 -17 11.5 -28.5t27.5 -11.5h2q16 0 28 11.5t12 28t-12 28.5t-28.5 12zM764 -2q-9 0 -14 7q-6 10 -15 15q-15 9 -31 4q-17 -4 -25 -19q-3 -5 -10 -7q-6 -2 -12 1l-77 45q-6 3 -7 10q-2 6 1 11q6 10 6 21q0 17 -12 29
t-29 12q-7 0 -11 5q-5 4 -5 11v89q0 6 5 11q4 5 11 5q11 0 20 5q15 9 19 25q5 17 -4 32q-3 5 -1.5 11t7.5 10l77 44q6 4 12.5 2t9.5 -7q4 -9 14 -15t21 -6q24 0 36 21q3 5 9 7t12 -1l78 -45q5 -3 7 -9q2 -7 -2 -12q-11 -21 0.5 -41.5t35.5 -20.5q6 0 11 -5q5 -4 5 -11v-89
q0 -6 -5 -11q-4 -5 -11 -5q-11 0 -21 -5q-14 -9 -18.5 -25.5t3.5 -31.5q4 -5 2 -11.5t-7 -9.5l-78 -45q-3 -2 -7 -1zM714 57q20 0 36 -10q10 -5 18 -14l53 31q-7 24 2 48t31 36q9 6 20 8v62q-31 7 -46.5 34.5t-6.5 57.5l-53 31q-22 -23 -54 -23q-31 0 -53 24l-53 -32
q6 -19 0 -40q-7 -29 -33 -44q-10 -5 -21 -8v-62q25 -5 41 -24.5t16 -45.5q0 -12 -4 -22l54 -31q14 15 35 21q8 3 18 3zM714.5 116q-29.5 0 -50 21t-20.5 50.5t20.5 50t50 20.5t50.5 -20.5t21 -50t-21 -50.5t-50.5 -21zM714.5 228q-16.5 0 -28.5 -12t-12 -28.5t12 -28.5
t28.5 -12t28.5 12t12 28.5t-12 28.5t-28.5 12z" />
    <glyph glyph-name="weixiu" unicode="&#xe68f;" 
d="M921 173l-211 211q-11 11 -25.5 11t-25.5 -10.5t-11 -25.5t11 -26l211 -211q17 -17 17 -41v0q0 -24 -17 -41q-16 -16 -40.5 -16t-41.5 16l-211 211q-10 10 -23.5 11t-24.5 -8q-2 -1 -5 -2q-77 -41 -162.5 -28.5t-147.5 73.5q-44 44 -63.5 103.5t-10.5 120.5l118 -118
q25 -24 59.5 -24t59.5 24l102 102q24 25 24 60t-24 59l-118 118q61 9 120 -10.5t104 -63.5q31 -31 53.5 -85.5t22.5 -98.5v-6v-1q0 -14 10 -25q11 -10 26 -11q14 -1 25 9.5t11 26.5v7q0 57 -28.5 126t-69.5 109q-70 70 -167 90.5t-190 -15.5q-9 -4 -16 -13.5t-7 -19.5
q0 -15 11 -26l162 -162q3 -3 3 -8t-3 -9l-102 -102q-4 -3 -9 -3t-8 3l-162 162q-11 11 -25 11q-11 0 -20.5 -7t-13.5 -16q-36 -93 -15.5 -190t90.5 -168q41 -40 110 -68.5t126 -28.5h1h1q31 0 73.5 9.5t70.5 23.5l192 -193q16 -15 43 -26.5t49 -11.5v0h1q22 0 49 11.5
t42 26.5q38 38 38 92t-38 92z" />
    <glyph glyph-name="gongyingshang" unicode="&#xe62d;" 
d="M559 358q-72 0 -123 49.5t-51 119.5t51 119.5t123 49.5q71 0 123 -50t52 -119q0 -70 -51 -119.5t-124 -49.5zM559.5 635q-46.5 0 -78.5 -31.5t-32 -76.5q0 -44 32.5 -76t78 -32t77.5 31.5t33 76.5q1 44 -31.5 76t-79 32zM167 -60q-42 0 -71.5 29t-29.5 68v140q0 14 11 25
t27 11t27 -10.5t11 -25.5v-138q0 -11 8 -18t19 -7h694q12 0 26 7.5t14 17.5v738q0 10 -14 18t-26 8h-696q-12 0 -20 -8t-8 -18v-109q0 -15 -11 -25.5t-27 -10.5t-27 10.5t-11 25.5v109q0 40 29.5 68.5t71.5 28.5h693q43 0 78.5 -29.5t35.5 -67.5v-738q2 -39 -26 -70
q-13 -14 -38 -22t-47 -8h-693v1zM860 -54h-693q-39 0 -67.5 27t-28.5 64v140q0 12 9.5 21t23.5 9q13 0 23 -9t10 -21v-138q0 -13 9.5 -21.5t22.5 -8.5h694q14 0 29.5 9t15.5 21v738q0 12 -15 21t-30 9h-696q-13 0 -23 -9t-10 -21v-109q0 -13 -9.5 -22t-23.5 -9t-23.5 9
t-9.5 22v109q0 38 28 64.5t68 26.5h693q40 0 74.5 -27.5t34.5 -63.5v-738q2 -38 -31 -65.5t-75 -27.5zM830 119h-66q0 83 -59 142t-142 59t-142 -59t-59 -142h-65q0 110 78 188t188 78t188.5 -78t78.5 -188zM163 145h-51h51zM41 528h170h-170zM211 509h-170q-8 0 -14 6
t-6 13.5t6 13.5t14 6h170q8 0 14 -6t6 -13.5t-6 -13.5t-14 -6zM41 419h170h-170zM211 400h-170q-8 0 -14 6t-6 13.5t6 13.5t14 6h170q8 0 14 -6t6 -13.5t-6 -13.5t-14 -6zM41 309h170h-170zM211 289h-170q-8 0 -14 6t-6 14t6 14t14 6h170q8 0 14 -6t6 -14t-6 -14t-14 -6z
" />
    <glyph glyph-name="mendian" unicode="&#xe82a;" 
d="M860.5 395q-5.5 0 -9.5 -4t-4 -10v-345h-169v280q0 6 -4 10t-10 4h-291q-6 0 -10 -4t-4 -10v-280h-162v345q0 8 -7 12q-3 2 -6.5 2t-6.5 -2q-7 -4 -7 -12v-358v-1q0 -6 4 -10t9 -4h4v0h667v0h6q6 0 10 4t4 10v359q0 6 -4 10t-9.5 4zM650 36h-264v266h264v-266zM860.5 403
q-9.5 0 -16 -6.5t-6.5 -15.5v-337h-152v272q0 9 -6.5 15.5t-15.5 6.5h-291q-9 0 -15.5 -6.5t-6.5 -15.5v-272h-145v337q0 13 -11 19q-6 3 -11.5 3t-10.5 -3v0q-11 -7 -11 -19v-357v-1l-1 -1q0 -9 7 -15q5 -5 12 -6v-1h682v0q9 1 14.5 7.5t5.5 14.5v359q0 9 -6 15.5
t-15.5 6.5zM874 22q0 -6 -4 -10t-10 -4h-6v0h-667v0h-4q-5 0 -9 4t-4 10v1v358q0 8 7 12q3 2 6.5 2t6.5 -2q7 -4 7 -12v-345h162v280q0 6 4 10t10 4h291q6 0 10 -4t4 -10v-280h169v345q0 6 4 10t9.5 4t9.5 -4t4 -10v-359zM386 36h264v266h-264v-266zM395 294h247v-250h-247
v250zM681 608h-334q-12 0 -20.5 -8.5t-8.5 -19.5t8 -19t19 -8h2h333h2q12 0 20 8t8 19t-8.5 19.5t-20.5 8.5zM921 508v15v157q0 45 -27 66q-24 19 -71 19h-619q-13 1 -33 1q-15 1 -21 1q-24 0 -35 -11q-10 -11 -9 -48v-28v-157q0 -43 27 -65q25 -20 71 -20h619h28
q13 -1 19 -1q28 0 39 12q9 8 11 20t1 39zM880 479q-4 -1 -10 -1q-5 0 -18 1h-28h-620q-32 0 -45 11q-12 10 -12 33v157v30q-1 12 -1 16h4q5 0 20 -1q20 0 34 -1v0h619q34 0 45.5 -10t11.5 -34v-157v-15q1 -23 0 -29z" />
    <glyph glyph-name="xiaoshoukaidan1" unicode="&#xe72a;" 
d="M705 736h76q17 0 29 -12.5t12 -29.5v-252q22 -11 42 -26v281q0 35 -24.5 59t-58.5 24h-76q-9 0 -15.5 -6.5t-6.5 -15.5q0 -22 22 -22zM526 41h-376q-16 0 -28.5 12.5t-12.5 29.5v611q0 17 12.5 29.5t28.5 12.5h85q9 0 15.5 6t6.5 16q0 22 -22 22h-85q-35 0 -58.5 -24
t-23.5 -59v-612q0 -35 23.5 -58.5t58.5 -23.5h424q-27 16 -48 38zM712 456q-100 0 -171 -71t-71 -171.5t71 -171.5t171 -71t171 71t71 171.5t-71 171.5t-171 71zM712 14q-82 0 -140.5 58.5t-58.5 141t58.5 141t140.5 58.5t140.5 -58.5t58.5 -141t-58.5 -141t-140.5 -58.5z
M260 519h408q9 0 15.5 6t6.5 16q0 23 -22 23h-408q-8 0 -15 -6t-7 -17q0 -22 22 -22zM347 727h211q9 0 16 6t7 16q0 23 -23 23h-211q-8 0 -15 -6.5t-7 -16.5t7 -16t15 -6zM260 348h230q18 25 41 45h-271q-8 0 -15 -6.5t-7 -16.5q0 -22 22 -22zM441 196q0 13 1 25h-182
q-8 0 -15 -6t-7 -16q0 -23 22 -23h182q-1 10 -1 20zM837 176h-257q-5 0 -9.5 6.5t-4.5 16.5q0 22 14 22h257q6 0 10 -6t4 -16q0 -23 -14 -23zM817 180l-93 102q-10 11 7 26t27 4l92 -102q10 -11 -6.5 -26t-26.5 -4zM827 215l-110 -83q-12 -9 1.5 -27t25.5 -9l110 83
q12 9 -1.5 27t-25.5 9z" />
    <glyph glyph-name="anzhuang" unicode="&#xe70b;" horiz-adv-x="1044" 
d="M508 304l-98 -137q-10 -13 -25 -16.5t-29 4.5l-168 96v-92l320 -178v323zM547 -17l319 178v94l-168 -100q-13 -8 -28.5 -5t-24.5 15l-98 135v-317zM901 574l117 -180q9 -15 5 -31.5t-19 -25.5l-97 -57v-119q0 -25 -20 -35l-340 -191q-20 -9 -39 0l-340 191q-21 14 -21 35
v114l-106 62q-2 0 -2 2q-14 9 -17 26.5t7 30.5l125 181l2 -3l6 7l102 59l-2 2l4 10q16 48 49 84l9 8l77 -12q10 -1 19.5 4t13.5 15l27 75l10 2q60 13 117 0l10 -2l25 -73q3 -10 12.5 -16t19.5 -5l80 10l6 -8q11 -12 27 -37q14 -24 23 -47l4 -10l-7 -8l109 -53zM860 552
l-98 49l-19 -22q-6 -8 -6 -18.5t6 -16.5l33 -37zM195 552l84 -45l34 39q14 17 0 35l-24 28zM528.5 480q-38.5 0 -66.5 27.5t-28 66.5q0 40 27 67.5t67 27.5t67.5 -27.5t27.5 -67.5q0 -39 -28 -66.5t-66.5 -27.5zM528 519q22 0 38 16t16 37.5t-16 37.5t-37.5 16t-37.5 -16
t-16 -38q0 -21 15.5 -37t37.5 -16zM733 679q-2 4 -14 22l-57 -8q-25 -3 -47 10.5t-29 36.5l-17 52q-40 6 -77 0l-21 -54q-7 -22 -29.5 -35t-46.5 -10l-55 8q-17 -23 -31 -53l37 -45q16 -18 15.5 -44t-17.5 -44l-27 -31l211 -114l211 114l-26 29q-16 19 -16.5 44t14.5 44
l37 45q-7 22 -15 33zM61 372l316 -181l112 158l-323 174zM889 521l-324 -174l113 -158l305 181z" />
    <glyph glyph-name="xiaoshouceshi" unicode="&#xe604;" 
d="M768 663v-102q0 -21 26 -21q11 0 18 6.5t7 14.5v163q0 6 -5 11q-5 10 -15 10h-164q-8 0 -14.5 -7.5t-6.5 -18.5q0 -9 6.5 -17t14.5 -8h95l-3 -3l-197 -230l-161 159q-6 5 -14.5 6.5t-14.5 -1.5h-2q-1 0 -2.5 -1.5t-2.5 -1.5v-2l-164 -190q-7 -8 -6 -18t9 -18
q7 -6 17.5 -5.5t17.5 8.5l146 171l162 -156q5 -5 12 -5h8q15 0 23 13l210 238v5zM937 148l49 47l-13 38l-64 5l-21 26l5 64l-35 20l-52 -41l-30 3l-36 48l-39 -12l-12 -64l-26 -21l-56 8l-18 -36l31 -54l-3 -31l-41 -35l13 -39l56 -13l21 -25v-56l35 -21l47 31l30 -3l44 -41
l38 13l5 54l26 20l64 3l20 36l-38 43v33zM922 95l-13 -26l-46 -2l-18 -16l-5 -41l-28 -7l-34 28l-23 2l-33 -23l-26 13v41l-15 18l-41 13l-8 28l31 25l3 24l-26 40l13 26l41 -5l18 15l10 46l28 8l28 -36l23 -2l39 28l25 -13l-5 -46l16 -18l46 -3l7 -28l-33 -33l-3 -23z
M701 158.5q0 -30.5 22 -52.5t52.5 -22t52.5 22t22 52.5t-22 52.5t-52.5 22t-52.5 -22t-22 -52.5zM499 -26h-358q-21 0 -36 15t-15 37v716q0 22 15 37t36 15h717q21 0 36 -15t15 -37v-332q0 -12 7 -19t18.5 -7t18.5 7t7 19v332q0 43 -30 73t-72 30h-717q-42 0 -72.5 -30
t-30.5 -73v-716q0 -43 30.5 -73t72.5 -30h358q12 0 19 7t7 18.5t-7 18.5t-19 7zM269 51v205q0 10 -8 18t-17.5 8t-17.5 -8t-8 -18v-205q0 -9 8 -17t17.5 -8t17.5 8t8 17zM451 51v341q0 9 -8 17t-18 8t-18 -8t-8 -17v-341q0 -9 8 -17t18 -8t18 8t8 17zM576 397v-77
q0 -10 8 -18t17.5 -8t17.5 8t8 18v77q0 9 -8 17t-17 8q-10 0 -18 -7t-8 -18zM755 494q-10 0 -17.5 -7t-7.5 -19v-40q0 -10 8 -18t17.5 -8t17.5 8t8 18v40q0 11 -7.5 18.5t-18.5 7.5z" />
    <glyph glyph-name="kehu" unicode="&#xe633;" 
d="M177 -26q-12 0 -20 8t-8 20v74q0 110 62.5 201t166.5 133l16 6l-14 10q-39 31 -60.5 74.5t-21.5 92.5q0 88 63 150t151.5 62t151 -62t62.5 -150q0 -49 -21.5 -92.5t-60.5 -74.5l-13 -10l15 -6q105 -42 167 -133t62 -201v-74q0 -12 -8 -20t-19 -8h-671zM512.5 381
q-127.5 0 -218 -89.5t-90.5 -215.5v-47h616v47q0 126 -90 215.5t-217.5 89.5zM512.5 750q-65.5 0 -112.5 -46t-47 -111t47 -111.5t112.5 -46.5t112 46.5t46.5 111.5t-46.5 111t-112 46zM28 85q-12 0 -20 8t-8 20v57q0 80 41.5 148.5t113.5 104.5l11 6l-8 10q-46 50 -46 117
q0 69 49 120t119 55q-22 -29 -34 -63q-35 -12 -57 -43t-22 -69q0 -35 19.5 -65t51.5 -45q20 -7 20 -25q0 -19 -20 -26l-7 -1q-78 -20 -127 -82.5t-49 -141.5v-30h35q-4 -27 -5 -55h-57v0zM939 85q-1 28 -5 55h35v30q0 79 -49 141.5t-127 82.5l-8 2q-19 6 -19 25q0 18 19 25
q33 15 52.5 45t19.5 65q0 38 -22 69t-58 44q-11 32 -33 62q70 -4 119 -55t49 -120q0 -67 -46 -117l-8 -10l11 -6q72 -36 113.5 -104.5t41.5 -148.5v-57q0 -12 -8 -20t-20 -8h-57v0z" />
    <glyph glyph-name="zhiliang" unicode="&#xe60a;" 
d="M733 499q-12 12 -28 12t-27 -12l-199 -198l-85 85q-12 11 -27.5 11t-27.5 -11.5t-12 -27.5t12 -28l113 -114q11 -11 29.5 -11t29.5 11l227 228q9 9 8 26.5t-13 28.5zM903 671q-66 4 -129.5 25.5t-108 50.5t-74.5 56t-43 49q-14 21 -37 21q-24 0 -35 -19
q-13 -22 -43 -49.5t-74.5 -56t-107.5 -49.5t-130 -25q-15 0 -27 -12t-12 -28q-2 -294 103.5 -481.5t311.5 -256.5q1 0 6 -1.5t8 -1.5q8 0 13 3q206 69 312 256.5t106 481.5q0 16 -11.5 26.5t-27.5 10.5zM511 -25q-342 125 -350 622q112 15 203.5 65.5t146.5 109.5
q54 -59 145.5 -109.5t203.5 -65.5q-8 -497 -349 -622z" />
    <glyph glyph-name="diannao" unicode="&#xe60e;" horiz-adv-x="1189" 
d="M988 806h-816q-34 0 -58 -24t-24 -58v-544q0 -34 24 -58t58 -24h381v-81h-136q-12 0 -19.5 -8t-7.5 -19.5t7.5 -19.5t19.5 -8h326q12 0 20 8t8 19.5t-8 19.5t-20 8h-136v81h381q34 0 58 24t24 58v544q0 34 -24 58t-58 24zM172 751h816q12 0 20 -8t8 -19v-462h-871v462
q0 11 8 19t19 8v0zM988 153h-816q-11 0 -19 8t-8 19v27h871v-27q0 -11 -8 -19t-20 -8z" />
    <glyph glyph-name="shouji" unicode="&#xe610;" 
d="M523 81q-21 0 -36 -15t-15 -36t15 -36t36 -15t36 15t15 36t-15 36t-36 15zM776 885h-506q-32 0 -54.5 -22.5t-22.5 -54.5v-848q0 -32 22.5 -54.5t54.5 -22.5h506q32 0 54.5 22.5t22.5 54.5v848q0 32 -22.5 54.5t-54.5 22.5zM270 834h506q10 0 18 -7.5t8 -18.5v-635h-557
v635q0 11 7.5 18.5t17.5 7.5zM776 -66h-506q-10 0 -17.5 7.5t-7.5 18.5v157h557v-157q0 -11 -8 -18.5t-18 -7.5z" />
    <glyph glyph-name="wujiaoxing" unicode="&#xe611;" 
d="M752 -85q-20 0 -39 10l-187 103q-7 4 -15 0l-187 -103q-19 -10 -39 -10q-37 0 -62 30q-26 29 -19 70l36 218q1 10 -6 17l-152 154q-16 17 -21.5 41t1.5 47q8 23 25.5 38t41.5 19l209 32q8 1 12 9l94 198q11 23 31 36t44 13t44 -13t31 -36l94 -198q4 -8 12 -9l209 -32
q23 -4 41 -19t25 -38q8 -23 2.5 -47t-22.5 -41l-151 -155q-7 -6 -5 -17l36 -218q6 -40 -19 -70q-27 -29 -64 -29zM519 96v0q20 0 39 -10l187 -103q3 -2 7 -2q7 0 12 6q6 7 4 16l-36 218q-7 44 24 75l152 155q7 6 4 20q-3 11 -13 12l-209 32q-44 6 -63 47l-93 198
q-5 10 -15 10q-9 0 -14 -10l-94 -198q-19 -40 -63 -47l-209 -32q-10 -1 -14 -11q-4 -12 5 -21l152 -155q30 -30 23 -74l-36 -218q-2 -10 4 -17q6 -6 12 -6q4 0 7 2l188 103q18 10 39 10z" />
    <glyph glyph-name="wujiaoxing1" unicode="&#xe613;" 
d="M752 -85q-20 0 -39 10l-187 103q-7 4 -15 0l-187 -103q-19 -10 -39 -10q-37 0 -62 30q-26 29 -19 70l36 218q1 10 -6 17l-152 154q-16 17 -21.5 41t1.5 47q8 23 25.5 38t41.5 19l209 32q8 1 12 9l94 198q11 23 31 36t44 13t44 -13t31 -36l94 -198q4 -8 12 -9l209 -32
q23 -4 41 -19t25 -38q8 -23 2.5 -47t-22.5 -41l-151 -155q-7 -6 -5 -17l36 -218q6 -40 -19 -70q-27 -29 -64 -29z" />
    <glyph glyph-name="logo" unicode="&#xe615;" 
d="M59.5 448.5q4.5 2.5 10.5 2.5q16 0 31 -9l5 32q-8 3 -12 3.5t-9.5 1t-12.5 0.5q-24 0 -40 -11t-19 -30q-5 -26 24 -38q9 -3 12 -5.5t4.5 -4.5t0.5 -5q0 -5 -4 -7t-10 -2q-9 0 -18 3.5t-16 9.5l-6 -35q15 -7 35 -7q18 0 31 4.5t21.5 14t10.5 22.5t-4.5 22.5t-24.5 17.5
q-10 4 -12.5 7t-2 7t5 6.5zM399 450l5 30h-79l-23 -128h82l6 31h-44l3 18h39l5 31h-39l4 18h41zM171 443l-9 -52q-1 -7 -4.5 -10.5t-8.5 -3.5q-10 0 -8 13l9 53h-37l-10 -55q-3 -19 3 -29t21 -10q6 0 11 2t9.5 5t10.5 9v0l-3 -14h38l16 92h-38zM283 445q-9 0 -17.5 -4.5
t-14.5 -12.5v0l2 15h-38l-16 -92h38l9 52q1 6 4.5 10t8.5 4q6 0 7.5 -3.5t0.5 -12.5l-9 -50h38l10 56q6 38 -23 38zM491.5 424q-3.5 10 -12.5 15.5t-24 5.5q-13 0 -25.5 -6.5t-20.5 -17.5t-10 -26q-4 -21 7 -33.5t35 -12.5q19 0 34 6l4 24q-12 -5 -26 -5q-9 0 -14 3t-5 9h56
l2 15q3 13 -0.5 23zM460 406h-23q2 7 6 11.5t8 4.5q12 0 9 -16zM591.5 424q-3.5 10 -12.5 15.5t-23 5.5t-26.5 -6.5t-20 -17.5t-10.5 -26q-4 -21 7.5 -33.5t34.5 -12.5q20 0 35 6l4 24q-13 -5 -26 -5q-10 0 -15 3t-5 9h56l3 15q2 13 -1.5 23zM560 406h-23q2 7 6 11.5t9 4.5
q11 0 8 -16zM982 476l-51 3v-12l51 -4v13zM809 469h-9l9 29h-185l-8 -24h43l3 8h97l-4 -13h-139v-48h69l-69 -13v-18l83 15v-8l-83 -15v-18l83 15v-9l-83 -15v-17l83 14v-14h24q23 -1 21 15v68h49q17 -1 16 13v35zM693 436h-35v19h35v-19zM758 436h-26v19h35v-10
q2 -11 -9 -9zM982 461h-33l-18 -33h32zM750 393l18 -55h41l-16 48q-2 3 3 4h1l12 4v19l-56 -12q-5 -2 -3 -8zM947 424h-44l2 -8h-74v-15h12l13 -48h-25v-15h193v15h-25l12 48h13v15h-75zM957 353h-59l-13 48h84zM1024 446v52h-93v-16h52v-54h25q15 -1 16 13v3v2zM881 476
l-50 3v-12l50 -4v13zM881 461h-32l-18 -33h32zM885 428h22q18 -1 17 18v52h-93v-16h54v-54z" />
    <glyph glyph-name="suneee" unicode="&#xe616;" 
d="M103 425q7 4 18 4q27 0 52 -15l10 56q-14 4 -21.5 5t-17 2t-20.5 1q-41 0 -68.5 -19t-32.5 -51q-8 -46 41 -66q15 -6 20.5 -9.5t8 -7.5t1.5 -10q-2 -7 -8.5 -11t-17.5 -4q-14 0 -29.5 6t-27.5 16l-11 -60q27 -12 61 -12q30 0 52.5 8t37 24.5t18.5 38.5q4 23 -7.5 39
t-43.5 30q-16 7 -20.5 12t-3.5 11q2 8 9 12zM687 428l9 52h-137l-38 -220h141l9 52h-75l6 32h66l9 52h-66l5 32h71zM295 415l-15 -89q-2 -11 -8 -17.5t-16 -6.5q-17 0 -13 23l16 90h-65l-17 -95q-5 -32 5.5 -49t35.5 -17q11 0 20 3.5t16 8.5t18 16v0l-4 -24h65l28 157h-66z
M487 419q-15 0 -29.5 -7.5t-25.5 -20.5v0l4 24h-65l-28 -157h66l15 90q2 10 8 16.5t14 6.5q10 0 13.5 -6t0.5 -21l-15 -86h65l17 96q11 65 -40 65zM846 383q-6 17 -21.5 26.5t-39.5 9.5t-45.5 -11t-35 -30t-17.5 -45q-7 -37 12.5 -58t60.5 -21q33 0 59 10l7 41
q-22 -9 -45 -9q-16 0 -25 6t-9 16h97l4 25q4 23 -2 40zM792 352h-39q3 13 10 20.5t15 7.5q19 0 14 -28zM1020 383q-6 17 -21.5 26.5t-40.5 9.5q-23 0 -45 -11t-35 -30t-18 -45q-6 -37 13 -58t60 -21q34 0 59 10l7 41q-22 -9 -44 -9q-17 0 -26 6t-8 16h96l5 25q4 23 -2 40z
M966 352h-40q3 13 10 20.5t15 7.5q19 0 15 -28z" />
  </font>
</defs>
</svg>
